<svg width="376" height="235" viewBox="0 0 376 235" fill="none" xmlns="http://www.w3.org/2000/svg">
<path d="M7.93796 66H0.989466C0.999157 65.1569 1.20267 64.4204 1.6 63.7904C1.99734 63.1605 2.54004 62.613 3.2281 62.1478C3.5576 61.9055 3.90163 61.6729 4.2602 61.45C4.61877 61.2175 4.94826 60.9703 5.24869 60.7087C5.54911 60.447 5.79623 60.166 5.99005 59.8656C6.18387 59.5554 6.28563 59.2017 6.29532 58.8044C6.29532 58.6203 6.27109 58.4264 6.22264 58.2229C6.18387 58.0097 6.1015 57.8159 5.97552 57.6415C5.84953 57.4573 5.67509 57.3071 5.4522 57.1908C5.22931 57.0648 4.93857 57.0018 4.58 57.0018C4.25051 57.0018 3.97431 57.0697 3.75142 57.2054C3.53822 57.3313 3.36378 57.5106 3.2281 57.7432C3.10212 57.9661 3.00521 58.2326 2.93737 58.5427C2.87922 58.8528 2.8453 59.1872 2.83561 59.5458H1.17844C1.17844 58.9837 1.25112 58.4652 1.39649 57.9903C1.55155 57.5058 1.77929 57.0891 2.07971 56.7402C2.38013 56.3913 2.74355 56.12 3.16995 55.9261C3.60605 55.7226 4.10999 55.6209 4.68176 55.6209C5.30199 55.6209 5.82046 55.7226 6.23718 55.9261C6.65389 56.1297 6.98823 56.3865 7.2402 56.6966C7.50186 57.0067 7.68599 57.3459 7.79259 57.7141C7.89919 58.0727 7.95249 58.4167 7.95249 58.7462C7.95249 59.1533 7.8895 59.5215 7.76352 59.851C7.63753 60.1805 7.46794 60.4858 7.25474 60.7668C7.04153 61.0382 6.79926 61.2901 6.52791 61.5227C6.25656 61.7553 5.97552 61.9734 5.68479 62.1769C5.39405 62.3804 5.10332 62.5742 4.81259 62.7583C4.52186 62.9425 4.25051 63.1266 3.99854 63.3107C3.75626 63.4949 3.54306 63.6887 3.35893 63.8922C3.1748 64.086 3.04882 64.2944 2.98098 64.5173H7.93796V66ZM9.00878 55.8244H15.9718V57.2054C15.4388 57.8062 14.9542 58.4313 14.5181 59.0806C14.0821 59.7202 13.6993 60.4034 13.3698 61.1302C13.05 61.8474 12.7883 62.6081 12.5848 63.4125C12.3813 64.2168 12.2456 65.0793 12.1778 66H10.3607C10.4188 65.1956 10.5545 64.401 10.7677 63.616C10.9906 62.831 11.2716 62.0703 11.6108 61.3338C11.9597 60.5972 12.3619 59.8898 12.8174 59.2114C13.2728 58.533 13.7622 57.8983 14.2856 57.3071H9.00878V55.8244Z" fill="#22215B" fill-opacity="0.3"/>
<path d="M11.1742 103.802H12.4098V105.067H11.1742V107H9.82226V105.067H4.6327V103.802L8.28138 96.8244H9.73504L6.08636 103.802H9.82226V100.924H11.1742V103.802Z" fill="#22215B"/>
<path d="M3.52201 138.755L6.19675 137.824H7.35967L7.35967 148H6.02231L6.02231 139.278L3.85635 139.918L3.52201 138.755ZM8.70351 138.755L11.3782 137.824H12.5412V148H11.2038V139.278L9.03785 139.918L8.70351 138.755Z" fill="#22215B"/>
<path d="M2.08113 179.755L4.75586 178.824H5.91879L5.91879 189H4.58142L4.58142 180.278L2.41547 180.918L2.08113 179.755ZM12.99 183.738C14.0464 184.28 14.5745 185.104 14.5745 186.209C14.5745 187.139 14.2499 187.871 13.6006 188.404C12.9416 188.927 12.1033 189.189 11.0858 189.189C10.0682 189.189 9.23476 188.927 8.58546 188.404C7.93616 187.871 7.61151 187.139 7.61151 186.209C7.61151 185.104 8.13967 184.28 9.196 183.738C8.36256 183.214 7.94585 182.473 7.94585 181.514C7.94585 180.593 8.25112 179.886 8.86165 179.391C9.48188 178.887 10.2232 178.635 11.0858 178.635C11.9676 178.635 12.709 178.887 13.3099 179.391C13.9301 179.886 14.2402 180.593 14.2402 181.514C14.2402 182.473 13.8235 183.214 12.99 183.738ZM11.0858 179.929C10.5527 179.929 10.1166 180.07 9.77746 180.351C9.44796 180.632 9.28322 181.029 9.28322 181.543C9.28322 182.047 9.45281 182.444 9.792 182.735C10.1312 183.025 10.5624 183.171 11.0858 183.171C11.6091 183.171 12.0403 183.025 12.3795 182.735C12.7187 182.444 12.8883 182.047 12.8883 181.543C12.8883 181.029 12.7235 180.632 12.394 180.351C12.0645 180.07 11.6285 179.929 11.0858 179.929ZM11.0858 187.895C11.7447 187.895 12.2681 187.74 12.6557 187.43C13.0433 187.12 13.2372 186.684 13.2372 186.122C13.2372 185.569 13.0433 185.138 12.6557 184.828C12.2681 184.518 11.7447 184.363 11.0858 184.363C10.4365 184.363 9.91798 184.518 9.53034 184.828C9.1427 185.138 8.94887 185.569 8.94887 186.122C8.94887 186.684 9.1427 187.12 9.53034 187.43C9.91798 187.74 10.4365 187.895 11.0858 187.895Z" fill="#22215B"/>
<path d="M7.87129 228H1.30075V226.895L4.89129 223.232C5.85071 222.273 6.33041 221.449 6.33041 220.761C6.33041 220.199 6.15598 219.758 5.8071 219.438C5.46791 219.108 5.0415 218.944 4.52788 218.944C3.56846 218.944 2.87071 219.399 2.43461 220.31L1.30075 219.641C1.61087 218.992 2.04696 218.498 2.60905 218.159C3.17113 217.81 3.80589 217.635 4.51334 217.635C5.37584 217.635 6.11721 217.916 6.73744 218.479C7.36736 219.05 7.68232 219.806 7.68232 220.746C7.68232 221.773 7.07663 222.893 5.86524 224.104L3.26319 226.692H7.87129V228ZM10.7718 221.793H12.2545C13.2139 221.793 14.0231 222.079 14.6821 222.651C15.3508 223.222 15.6852 224.002 15.6852 224.991C15.6852 225.989 15.346 226.769 14.6676 227.331C13.9795 227.903 13.1558 228.189 12.1964 228.189C11.4017 228.189 10.6991 228 10.0886 227.622C9.48773 227.234 9.07102 226.697 8.83843 226.008L9.98682 225.354C10.1225 225.839 10.3842 226.212 10.7718 226.474C11.1594 226.735 11.6343 226.866 12.1964 226.866C12.8457 226.866 13.3642 226.701 13.7518 226.372C14.1491 226.033 14.3478 225.572 14.3478 224.991C14.3478 224.409 14.1491 223.949 13.7518 223.61C13.3642 223.271 12.8554 223.101 12.2255 223.101H9.34721L9.72516 217.824H15.2927V219.089H10.9462L10.7718 221.793Z" fill="#22215B"/>
<path d="M65.9778 228H59.4072V226.895L62.9978 223.232C63.9572 222.273 64.4369 221.449 64.4369 220.761C64.4369 220.199 64.2624 219.758 63.9136 219.438C63.5744 219.108 63.148 218.944 62.6343 218.944C61.6749 218.944 60.9772 219.399 60.5411 220.31L59.4072 219.641C59.7173 218.992 60.1534 218.498 60.7155 218.159C61.2776 217.81 61.9124 217.635 62.6198 217.635C63.4823 217.635 64.2237 217.916 64.8439 218.479C65.4738 219.05 65.7888 219.806 65.7888 220.746C65.7888 221.773 65.1831 222.893 63.9717 224.104L61.3697 226.692H65.9778V228ZM70.2045 221.342C71.2221 221.342 72.0603 221.662 72.7193 222.302C73.3783 222.932 73.7078 223.75 73.7078 224.758C73.7078 225.766 73.3783 226.59 72.7193 227.23C72.0603 227.869 71.2221 228.189 70.2045 228.189C69.1676 228.189 68.3244 227.869 67.6751 227.23C67.0258 226.59 66.7012 225.766 66.7012 224.758C66.7012 223.964 66.9047 223.285 67.3117 222.723L70.5825 217.824H72.1233L69.7248 221.371C70.0155 221.352 70.1754 221.342 70.2045 221.342ZM70.2045 222.636C69.5552 222.636 69.0319 222.83 68.6346 223.217C68.2372 223.605 68.0385 224.119 68.0385 224.758C68.0385 225.398 68.2372 225.916 68.6346 226.314C69.0416 226.701 69.5649 226.895 70.2045 226.895C70.8441 226.895 71.3626 226.701 71.7599 226.314C72.1669 225.916 72.3705 225.398 72.3705 224.758C72.3705 224.119 72.1669 223.605 71.7599 223.217C71.3626 222.83 70.8441 222.636 70.2045 222.636Z" fill="#22215B"/>
<path d="M60.2018 179.755L62.8765 178.824H64.0395V189H62.7021V180.278L60.5361 180.918L60.2018 179.755ZM72.5934 182.052C72.5934 182.846 72.3851 183.529 71.9684 184.101H71.9829L68.6976 189H67.1713L69.5844 185.439C69.2936 185.458 69.1289 185.468 69.0901 185.468C68.0629 185.468 67.2198 185.153 66.5608 184.523C65.9115 183.883 65.5868 183.059 65.5868 182.052C65.5868 181.034 65.9115 180.215 66.5608 179.595C67.2101 178.955 68.0532 178.635 69.0901 178.635C70.1077 178.635 70.946 178.955 71.605 179.595C72.2639 180.225 72.5934 181.044 72.5934 182.052ZM69.0901 179.929C68.4505 179.929 67.9272 180.123 67.5202 180.511C67.1228 180.898 66.9242 181.412 66.9242 182.052C66.9242 182.691 67.1228 183.21 67.5202 183.607C67.9272 183.995 68.4505 184.188 69.0901 184.188C69.7297 184.188 70.2482 183.995 70.6455 183.607C71.0526 183.21 71.2561 182.691 71.2561 182.052C71.2561 181.412 71.0574 180.898 70.6601 180.511C70.2627 180.123 69.7394 179.929 69.0901 179.929Z" fill="#22215B"/>
<path d="M60.2799 138.755L62.9546 137.824H64.1175V148H62.7802V139.278L60.6142 139.918L60.2799 138.755ZM72.3517 148H65.7812V146.895L69.3717 143.232C70.3311 142.273 70.8108 141.449 70.8108 140.761C70.8108 140.199 70.6364 139.758 70.2875 139.438C69.9483 139.108 69.5219 138.944 69.0083 138.944C68.0489 138.944 67.3511 139.399 66.915 140.31L65.7812 139.641C66.0913 138.992 66.5274 138.498 67.0895 138.159C67.6516 137.81 68.2863 137.635 68.9938 137.635C69.8563 137.635 70.5976 137.916 71.2179 138.479C71.8478 139.05 72.1627 139.806 72.1627 140.746C72.1627 141.773 71.557 142.893 70.3457 144.104L67.7436 146.692H72.3517V148Z" fill="#22215B"/>
<path d="M64.9957 100.793H66.4784C67.4378 100.793 68.247 101.079 68.906 101.651C69.5747 102.222 69.9091 103.002 69.9091 103.991C69.9091 104.989 69.5699 105.769 68.8915 106.331C68.2034 106.903 67.3797 107.189 66.4203 107.189C65.6256 107.189 64.923 107 64.3125 106.622C63.7116 106.234 63.2949 105.697 63.0623 105.008L64.2107 104.354C64.3464 104.839 64.608 105.212 64.9957 105.474C65.3833 105.735 65.8582 105.866 66.4203 105.866C67.0696 105.866 67.588 105.701 67.9757 105.372C68.373 105.033 68.5717 104.572 68.5717 103.991C68.5717 103.409 68.373 102.949 67.9757 102.61C67.588 102.271 67.0793 102.101 66.4493 102.101H63.5711L63.9491 96.8244H69.5166V98.0891H65.1701L64.9957 100.793Z" fill="#22215B"/>
<path d="M65.938 66H58.9895C58.9992 65.1569 59.2027 64.4204 59.6 63.7904C59.9973 63.1605 60.54 62.613 61.2281 62.1478C61.5576 61.9055 61.9016 61.6729 62.2602 61.45C62.6188 61.2175 62.9483 60.9703 63.2487 60.7087C63.5491 60.447 63.7962 60.166 63.9901 59.8656C64.1839 59.5554 64.2856 59.2017 64.2953 58.8044C64.2953 58.6203 64.2711 58.4264 64.2226 58.2229C64.1839 58.0097 64.1015 57.8159 63.9755 57.6415C63.8495 57.4573 63.6751 57.3071 63.4522 57.1908C63.2293 57.0648 62.9386 57.0018 62.58 57.0018C62.2505 57.0018 61.9743 57.0697 61.7514 57.2054C61.5382 57.3313 61.3638 57.5106 61.2281 57.7432C61.1021 57.9661 61.0052 58.2326 60.9374 58.5427C60.8792 58.8528 60.8453 59.1872 60.8356 59.5458H59.1784C59.1784 58.9837 59.2511 58.4652 59.3965 57.9903C59.5515 57.5058 59.7793 57.0891 60.0797 56.7402C60.3801 56.3913 60.7435 56.12 61.17 55.9261C61.6061 55.7226 62.11 55.6209 62.6818 55.6209C63.302 55.6209 63.8205 55.7226 64.2372 55.9261C64.6539 56.1297 64.9882 56.3865 65.2402 56.6966C65.5019 57.0067 65.686 57.3459 65.7926 57.7141C65.8992 58.0727 65.9525 58.4167 65.9525 58.7462C65.9525 59.1533 65.8895 59.5215 65.7635 59.851C65.6375 60.1805 65.4679 60.4858 65.2547 60.7668C65.0415 61.0382 64.7993 61.2901 64.5279 61.5227C64.2566 61.7553 63.9755 61.9734 63.6848 62.1769C63.3941 62.3804 63.1033 62.5742 62.8126 62.7583C62.5219 62.9425 62.2505 63.1266 61.9985 63.3107C61.7563 63.4949 61.5431 63.6887 61.3589 63.8922C61.1748 64.086 61.0488 64.2944 60.981 64.5173H65.938V66ZM70.5412 56.9292C70.0954 56.9292 69.7174 57.0648 69.4073 57.3362C69.0972 57.5978 68.9421 57.9806 68.9421 58.4846C68.9421 58.9691 69.0924 59.3422 69.3928 59.6039C69.6932 59.8559 70.076 59.9819 70.5412 59.9819C71.0063 59.9819 71.3891 59.8559 71.6896 59.6039C71.99 59.3422 72.1402 58.9691 72.1402 58.4846C72.1402 57.9806 71.9851 57.5978 71.675 57.3362C71.3649 57.0648 70.987 56.9292 70.5412 56.9292ZM70.5412 66.2035C70.0275 66.2035 69.5478 66.1308 69.102 65.9855C68.666 65.8401 68.288 65.6317 67.9682 65.3604C67.6484 65.0793 67.3964 64.7402 67.2123 64.3428C67.0379 63.9455 66.9506 63.4997 66.9506 63.0055C66.9506 62.3659 67.1154 61.828 67.4449 61.3919C67.7841 60.9558 68.2395 60.6651 68.8113 60.5197V60.4906C68.3461 60.3162 67.9876 60.0497 67.7356 59.6911C67.4933 59.3229 67.3722 58.8916 67.3722 58.3974C67.3722 57.5252 67.6435 56.8468 68.1862 56.3622C68.7386 55.868 69.5236 55.6209 70.5412 55.6209C71.5587 55.6209 72.3389 55.868 72.8816 56.3622C73.434 56.8468 73.7101 57.5252 73.7101 58.3974C73.7101 58.8916 73.5842 59.3229 73.3322 59.6911C73.0899 60.0497 72.7362 60.3162 72.271 60.4906V60.5197C72.8428 60.6651 73.2934 60.9558 73.6229 61.3919C73.9621 61.828 74.1317 62.3659 74.1317 63.0055C74.1317 63.4997 74.0396 63.9455 73.8555 64.3428C73.6811 64.7402 73.434 65.0793 73.1141 65.3604C72.7943 65.6317 72.4115 65.8401 71.9658 65.9855C71.5297 66.1308 71.0548 66.2035 70.5412 66.2035ZM70.5412 64.8952C71.0936 64.8952 71.5539 64.7305 71.9221 64.401C72.2904 64.0715 72.4745 63.6063 72.4745 63.0055C72.4745 62.4434 72.2904 62.0073 71.9221 61.6972C71.5539 61.3774 71.0936 61.2175 70.5412 61.2175C69.9888 61.2175 69.5285 61.3774 69.1602 61.6972C68.7919 62.0073 68.6078 62.4434 68.6078 63.0055C68.6078 63.6063 68.7919 64.0715 69.1602 64.401C69.5285 64.7305 69.9888 64.8952 70.5412 64.8952Z" fill="#22215B" fill-opacity="0.3"/>
<path d="M127.34 228H120.769V226.895L124.36 223.232C125.319 222.273 125.799 221.449 125.799 220.761C125.799 220.199 125.624 219.758 125.276 219.438C124.936 219.108 124.51 218.944 123.996 218.944C123.037 218.944 122.339 219.399 121.903 220.31L120.769 219.641C121.079 218.992 121.515 218.498 122.078 218.159C122.64 217.81 123.274 217.635 123.982 217.635C124.844 217.635 125.586 217.916 126.206 218.479C126.836 219.05 127.151 219.806 127.151 220.746C127.151 221.773 126.545 222.893 125.334 224.104L122.732 226.692H127.34V228ZM127.889 219.104V217.824H134.242V219.031L130.535 228H129.125L132.803 219.104H127.889Z" fill="#22215B"/>
<path d="M126.254 189H119.683V187.895L123.274 184.232C124.233 183.273 124.713 182.449 124.713 181.761C124.713 181.199 124.538 180.758 124.19 180.438C123.85 180.108 123.424 179.944 122.91 179.944C121.951 179.944 121.253 180.399 120.817 181.31L119.683 180.641C119.993 179.992 120.429 179.498 120.992 179.159C121.554 178.81 122.188 178.635 122.896 178.635C123.758 178.635 124.5 178.916 125.12 179.479C125.75 180.05 126.065 180.806 126.065 181.746C126.065 182.773 125.459 183.893 124.248 185.104L121.646 187.692H126.254V189ZM134.156 187.75C133.477 188.709 132.513 189.189 131.263 189.189C130.013 189.189 129.048 188.709 128.37 187.75C127.682 186.781 127.338 185.502 127.338 183.912C127.338 182.323 127.682 181.044 128.37 180.075C129.048 179.115 130.013 178.635 131.263 178.635C132.513 178.635 133.477 179.115 134.156 180.075C134.844 181.044 135.188 182.323 135.188 183.912C135.188 185.502 134.844 186.781 134.156 187.75ZM128.69 183.912C128.69 185.172 128.913 186.146 129.358 186.834C129.804 187.522 130.439 187.866 131.263 187.866C132.087 187.866 132.721 187.522 133.167 186.834C133.623 186.146 133.85 185.172 133.85 183.912C133.85 182.652 133.623 181.678 133.167 180.99C132.721 180.293 132.087 179.944 131.263 179.944C130.439 179.944 129.804 180.288 129.358 180.976C128.913 181.664 128.69 182.643 128.69 183.912Z" fill="#22215B"/>
<path d="M121.223 137.755L123.898 136.824H125.061V147H123.723V138.278L121.557 138.918L121.223 137.755ZM133.004 138.016L130.795 140.996C131.589 141.142 132.229 141.481 132.713 142.014C133.198 142.547 133.44 143.206 133.44 143.991C133.44 144.989 133.101 145.769 132.423 146.331C131.735 146.903 130.911 147.189 129.952 147.189C129.157 147.189 128.464 147.01 127.873 146.651C127.282 146.293 126.86 145.784 126.608 145.125L127.742 144.456C128.042 145.396 128.779 145.866 129.952 145.866C130.591 145.866 131.105 145.701 131.492 145.372C131.89 145.033 132.088 144.572 132.088 143.991C132.088 143.409 131.89 142.949 131.492 142.61C131.105 142.271 130.591 142.101 129.952 142.101H129.603L129.065 141.273L131.42 138.089H126.899V136.824H133.004V138.016Z" fill="#22215B"/>
<path d="M127.499 100.342C128.517 100.342 129.355 100.662 130.014 101.302C130.673 101.932 131.003 102.75 131.003 103.758C131.003 104.766 130.673 105.59 130.014 106.23C129.355 106.869 128.517 107.189 127.499 107.189C126.472 107.189 125.629 106.869 124.97 106.23C124.321 105.59 123.996 104.766 123.996 103.758C123.996 102.973 124.2 102.295 124.607 101.723L127.877 96.8244H129.418L127.02 100.371C127.233 100.352 127.393 100.342 127.499 100.342ZM125.929 105.314C126.336 105.701 126.86 105.895 127.499 105.895C128.139 105.895 128.657 105.701 129.055 105.314C129.462 104.916 129.665 104.398 129.665 103.758C129.665 103.119 129.462 102.605 129.055 102.217C128.657 101.83 128.139 101.636 127.499 101.636C126.85 101.636 126.327 101.83 125.929 102.217C125.532 102.605 125.333 103.119 125.333 103.758C125.333 104.398 125.532 104.916 125.929 105.314Z" fill="#22215B"/>
<path d="M126.938 66H119.989C119.999 65.1569 120.203 64.4204 120.6 63.7904C120.997 63.1605 121.54 62.613 122.228 62.1478C122.558 61.9055 122.902 61.6729 123.26 61.45C123.619 61.2175 123.948 60.9703 124.249 60.7087C124.549 60.447 124.796 60.166 124.99 59.8656C125.184 59.5554 125.286 59.2017 125.295 58.8044C125.295 58.6203 125.271 58.4264 125.223 58.2229C125.184 58.0097 125.102 57.8159 124.976 57.6415C124.85 57.4573 124.675 57.3071 124.452 57.1908C124.229 57.0648 123.939 57.0018 123.58 57.0018C123.251 57.0018 122.974 57.0697 122.751 57.2054C122.538 57.3313 122.364 57.5106 122.228 57.7432C122.102 57.9661 122.005 58.2326 121.937 58.5427C121.879 58.8528 121.845 59.1872 121.836 59.5458H120.178C120.178 58.9837 120.251 58.4652 120.396 57.9903C120.552 57.5058 120.779 57.0891 121.08 56.7402C121.38 56.3913 121.744 56.12 122.17 55.9261C122.606 55.7226 123.11 55.6209 123.682 55.6209C124.302 55.6209 124.82 55.7226 125.237 55.9261C125.654 56.1297 125.988 56.3865 126.24 56.6966C126.502 57.0067 126.686 57.3459 126.793 57.7141C126.899 58.0727 126.952 58.4167 126.952 58.7462C126.952 59.1533 126.89 59.5215 126.764 59.851C126.638 60.1805 126.468 60.4858 126.255 60.7668C126.042 61.0382 125.799 61.2901 125.528 61.5227C125.257 61.7553 124.976 61.9734 124.685 62.1769C124.394 62.3804 124.103 62.5742 123.813 62.7583C123.522 62.9425 123.251 63.1266 122.999 63.3107C122.756 63.4949 122.543 63.6887 122.359 63.8922C122.175 64.086 122.049 64.2944 121.981 64.5173H126.938V66ZM129.84 63.427C129.879 63.8437 130.025 64.1829 130.276 64.4446C130.538 64.6966 130.887 64.8225 131.323 64.8225C131.769 64.8225 132.123 64.7062 132.384 64.4737C132.656 64.2314 132.864 63.9358 133.009 63.5869C133.155 63.2284 133.252 62.8504 133.3 62.4531C133.358 62.046 133.402 61.6729 133.431 61.3338L133.402 61.3047C133.179 61.702 132.874 62.0073 132.486 62.2205C132.098 62.424 131.672 62.5258 131.207 62.5258C130.722 62.5258 130.281 62.4434 129.884 62.2786C129.496 62.1139 129.162 61.8861 128.881 61.5954C128.6 61.295 128.382 60.9364 128.227 60.5197C128.072 60.0933 127.994 59.6184 127.994 59.0951C127.994 58.6009 128.072 58.1454 128.227 57.7287C128.382 57.3023 128.61 56.934 128.91 56.6239C129.21 56.3041 129.579 56.057 130.015 55.8825C130.451 55.7081 130.945 55.6209 131.498 55.6209C132.215 55.6209 132.806 55.7614 133.271 56.0424C133.736 56.3138 134.1 56.6917 134.361 57.1763C134.633 57.6512 134.822 58.2132 134.928 58.8625C135.035 59.5118 135.088 60.2047 135.088 60.9413C135.088 61.5518 135.02 62.1672 134.885 62.7874C134.759 63.4076 134.545 63.9746 134.245 64.4882C133.945 64.9921 133.547 65.404 133.053 65.7238C132.568 66.0436 131.968 66.2035 131.25 66.2035C130.843 66.2035 130.461 66.1357 130.102 66C129.743 65.8643 129.424 65.6753 129.143 65.4331C128.871 65.1908 128.648 64.9001 128.474 64.5609C128.3 64.2217 128.203 63.8437 128.183 63.427H129.84ZM131.425 57.0018C131.124 57.0018 130.863 57.06 130.64 57.1763C130.417 57.2829 130.233 57.4331 130.088 57.6269C129.942 57.8207 129.831 58.0436 129.753 58.2956C129.685 58.5476 129.651 58.8092 129.651 59.0806C129.651 59.3616 129.685 59.633 129.753 59.8946C129.831 60.1466 129.942 60.3695 130.088 60.5633C130.233 60.7571 130.417 60.917 130.64 61.043C130.863 61.1593 131.124 61.2175 131.425 61.2175C131.735 61.2175 132.006 61.1593 132.239 61.043C132.472 60.9267 132.66 60.7717 132.806 60.5779C132.961 60.3743 133.077 60.1466 133.155 59.8946C133.232 59.633 133.271 59.3616 133.271 59.0806C133.271 58.8092 133.232 58.5476 133.155 58.2956C133.077 58.0436 132.961 57.8256 132.806 57.6415C132.66 57.4476 132.472 57.2926 132.239 57.1763C132.006 57.06 131.735 57.0018 131.425 57.0018Z" fill="#22215B" fill-opacity="0.3"/>
<path d="M186.765 228H180.194V226.895L183.785 223.232C184.744 222.273 185.224 221.449 185.224 220.761C185.224 220.199 185.05 219.758 184.701 219.438C184.361 219.108 183.935 218.944 183.421 218.944C182.462 218.944 181.764 219.399 181.328 220.31L180.194 219.641C180.504 218.992 180.94 218.498 181.503 218.159C182.065 217.81 182.699 217.635 183.407 217.635C184.269 217.635 185.011 217.916 185.631 218.479C186.261 219.05 186.576 219.806 186.576 220.746C186.576 221.773 185.97 222.893 184.759 224.104L182.157 226.692H186.765V228ZM193.197 222.738C194.253 223.28 194.781 224.104 194.781 225.209C194.781 226.139 194.457 226.871 193.807 227.404C193.148 227.927 192.31 228.189 191.292 228.189C190.275 228.189 189.441 227.927 188.792 227.404C188.143 226.871 187.818 226.139 187.818 225.209C187.818 224.104 188.346 223.28 189.403 222.738C188.569 222.214 188.153 221.473 188.153 220.514C188.153 219.593 188.458 218.886 189.068 218.391C189.689 217.887 190.43 217.635 191.292 217.635C192.174 217.635 192.916 217.887 193.517 218.391C194.137 218.886 194.447 219.593 194.447 220.514C194.447 221.473 194.03 222.214 193.197 222.738ZM191.292 218.929C190.759 218.929 190.323 219.07 189.984 219.351C189.655 219.632 189.49 220.029 189.49 220.543C189.49 221.047 189.659 221.444 189.999 221.735C190.338 222.025 190.769 222.171 191.292 222.171C191.816 222.171 192.247 222.025 192.586 221.735C192.925 221.444 193.095 221.047 193.095 220.543C193.095 220.029 192.93 219.632 192.601 219.351C192.271 219.07 191.835 218.929 191.292 218.929ZM191.292 226.895C191.951 226.895 192.475 226.74 192.862 226.43C193.25 226.12 193.444 225.684 193.444 225.122C193.444 224.569 193.25 224.138 192.862 223.828C192.475 223.518 191.951 223.363 191.292 223.363C190.643 223.363 190.125 223.518 189.737 223.828C189.349 224.138 189.156 224.569 189.156 225.122C189.156 225.684 189.349 226.12 189.737 226.43C190.125 226.74 190.643 226.895 191.292 226.895Z" fill="#22215B"/>
<path d="M188.206 189H181.635V187.895L185.226 184.232C186.185 183.273 186.665 182.449 186.665 181.761C186.665 181.199 186.49 180.758 186.142 180.438C185.802 180.108 185.376 179.944 184.862 179.944C183.903 179.944 183.205 180.399 182.769 181.31L181.635 180.641C181.945 179.992 182.381 179.498 182.943 179.159C183.506 178.81 184.14 178.635 184.848 178.635C185.71 178.635 186.452 178.916 187.072 179.479C187.702 180.05 188.017 180.806 188.017 181.746C188.017 182.773 187.411 183.893 186.2 185.104L183.598 187.692H188.206V189ZM188.91 179.755L191.585 178.824H192.748V189H191.41V180.278L189.245 180.918L188.91 179.755Z" fill="#22215B"/>
<path d="M180.897 137.755L183.571 136.824H184.734V147H183.397L183.397 138.278L181.231 138.918L180.897 137.755ZM192.765 143.802H194.001V145.067H192.765V147H191.413V145.067H186.223V143.802L189.872 136.824H191.326L187.677 143.802H191.413V140.924H192.765V143.802Z" fill="#22215B"/>
<path d="M184.198 98.1036V96.8244H190.551V98.0309L186.844 107H185.434L189.112 98.1036H184.198Z" fill="#22215B"/>
<path d="M182.737 60.04C183.008 60.0497 183.28 60.0303 183.551 59.9819C183.822 59.9334 184.065 59.851 184.278 59.7347C184.491 59.6087 184.661 59.4392 184.787 59.2259C184.922 59.0127 184.99 58.7511 184.99 58.441C184.99 58.0049 184.84 57.656 184.539 57.3943C184.249 57.1327 183.871 57.0018 183.406 57.0018C183.115 57.0018 182.863 57.06 182.65 57.1763C182.436 57.2926 182.257 57.4525 182.112 57.656C181.976 57.8498 181.874 58.0727 181.807 58.3247C181.739 58.567 181.71 58.8189 181.719 59.0806H180.062C180.082 58.5863 180.174 58.1309 180.338 57.7141C180.503 57.2877 180.726 56.9195 181.007 56.6094C181.298 56.2992 181.647 56.057 182.054 55.8825C182.461 55.7081 182.921 55.6209 183.435 55.6209C183.832 55.6209 184.22 55.679 184.598 55.7953C184.985 55.9116 185.329 56.0812 185.63 56.3041C185.94 56.527 186.187 56.8129 186.371 57.1618C186.555 57.5009 186.647 57.8934 186.647 58.3392C186.647 58.8528 186.531 59.3035 186.298 59.6911C186.066 60.0691 185.702 60.3453 185.208 60.5197V60.5488C185.79 60.6651 186.24 60.9558 186.56 61.421C186.89 61.8765 187.054 62.4337 187.054 63.0927C187.054 63.5772 186.957 64.0133 186.764 64.401C186.57 64.7789 186.308 65.1036 185.979 65.3749C185.649 65.6366 185.266 65.8401 184.83 65.9855C184.394 66.1308 183.934 66.2035 183.449 66.2035C182.858 66.2035 182.34 66.1211 181.894 65.9564C181.458 65.782 181.089 65.5397 180.789 65.2296C180.498 64.9194 180.275 64.5463 180.12 64.1102C179.965 63.6741 179.883 63.1896 179.873 62.6566H181.53C181.511 63.2768 181.661 63.7953 181.981 64.212C182.31 64.619 182.8 64.8225 183.449 64.8225C184.002 64.8225 184.462 64.6675 184.83 64.3574C185.208 64.0376 185.397 63.5869 185.397 63.0055C185.397 62.6081 185.32 62.2932 185.164 62.0606C185.009 61.828 184.806 61.6536 184.554 61.5373C184.302 61.4113 184.016 61.3338 183.696 61.3047C183.386 61.2756 183.066 61.2659 182.737 61.2756V60.04ZM191.541 55.6209C192.268 55.6209 192.859 55.7905 193.315 56.1297C193.78 56.4591 194.138 56.8856 194.39 57.4089C194.652 57.9225 194.826 58.4894 194.914 59.1097C195.011 59.7299 195.059 60.3307 195.059 60.9122C195.059 61.4937 195.011 62.0945 194.914 62.7147C194.826 63.335 194.652 63.9067 194.39 64.43C194.138 64.9437 193.78 65.3701 193.315 65.7093C192.859 66.0388 192.268 66.2035 191.541 66.2035C190.814 66.2035 190.218 66.0388 189.753 65.7093C189.298 65.3701 188.939 64.9437 188.677 64.43C188.425 63.9067 188.251 63.335 188.154 62.7147C188.067 62.0945 188.023 61.4937 188.023 60.9122C188.023 60.3307 188.067 59.7299 188.154 59.1097C188.251 58.4894 188.425 57.9225 188.677 57.4089C188.939 56.8856 189.298 56.4591 189.753 56.1297C190.218 55.7905 190.814 55.6209 191.541 55.6209ZM191.541 64.8225C191.9 64.8225 192.2 64.7208 192.442 64.5173C192.685 64.3041 192.874 64.023 193.009 63.6741C193.155 63.3156 193.256 62.8989 193.315 62.424C193.373 61.9491 193.402 61.4452 193.402 60.9122C193.402 60.3792 193.373 59.8801 193.315 59.4149C193.256 58.9401 193.155 58.5233 193.009 58.1648C192.874 57.8062 192.685 57.5252 192.442 57.3217C192.2 57.1085 191.9 57.0018 191.541 57.0018C191.173 57.0018 190.868 57.1085 190.625 57.3217C190.393 57.5252 190.204 57.8062 190.058 58.1648C189.923 58.5233 189.826 58.9401 189.768 59.4149C189.71 59.8801 189.68 60.3792 189.68 60.9122C189.68 61.4452 189.71 61.9491 189.768 62.424C189.826 62.8989 189.923 63.3156 190.058 63.6741C190.204 64.023 190.393 64.3041 190.625 64.5173C190.868 64.7208 191.173 64.8225 191.541 64.8225Z" fill="#22215B" fill-opacity="0.3"/>
<path d="M247.871 228H241.301V226.895L244.891 223.232C245.851 222.273 246.33 221.449 246.33 220.761C246.33 220.199 246.156 219.758 245.807 219.438C245.468 219.108 245.042 218.944 244.528 218.944C243.568 218.944 242.871 219.399 242.435 220.31L241.301 219.641C241.611 218.992 242.047 218.498 242.609 218.159C243.171 217.81 243.806 217.635 244.513 217.635C245.376 217.635 246.117 217.916 246.737 218.479C247.367 219.05 247.682 219.806 247.682 220.746C247.682 221.773 247.077 222.893 245.865 224.104L243.263 226.692H247.871V228ZM255.814 221.052C255.814 221.846 255.606 222.529 255.189 223.101H255.204L251.918 228H250.392L252.805 224.439C252.514 224.458 252.35 224.468 252.311 224.468C251.284 224.468 250.441 224.153 249.782 223.523C249.132 222.883 248.808 222.059 248.808 221.052C248.808 220.034 249.132 219.215 249.782 218.595C250.431 217.955 251.274 217.635 252.311 217.635C253.329 217.635 254.167 217.955 254.826 218.595C255.485 219.225 255.814 220.044 255.814 221.052ZM252.311 218.929C251.671 218.929 251.148 219.123 250.741 219.511C250.344 219.898 250.145 220.412 250.145 221.052C250.145 221.691 250.344 222.21 250.741 222.607C251.148 222.995 251.671 223.188 252.311 223.188C252.951 223.188 253.469 222.995 253.866 222.607C254.273 222.21 254.477 221.691 254.477 221.052C254.477 220.412 254.278 219.898 253.881 219.511C253.484 219.123 252.96 218.929 252.311 218.929Z" fill="#22215B"/>
<path d="M247.928 189H241.358V187.895L244.948 184.232C245.907 183.273 246.387 182.449 246.387 181.761C246.387 181.199 246.213 180.758 245.864 180.438C245.525 180.108 245.098 179.944 244.585 179.944C243.625 179.944 242.927 180.399 242.491 181.31L241.358 180.641C241.668 179.992 242.104 179.498 242.666 179.159C243.228 178.81 243.863 178.635 244.57 178.635C245.433 178.635 246.174 178.916 246.794 179.479C247.424 180.05 247.739 180.806 247.739 181.746C247.739 182.773 247.133 183.893 245.922 185.104L243.32 187.692H247.928V189ZM255.594 189H249.023V187.895L252.614 184.232C253.573 183.273 254.053 182.449 254.053 181.761C254.053 181.199 253.879 180.758 253.53 180.438C253.19 180.108 252.764 179.944 252.25 179.944C251.291 179.944 250.593 180.399 250.157 181.31L249.023 180.641C249.333 179.992 249.77 179.498 250.332 179.159C250.894 178.81 251.528 178.635 252.236 178.635C253.098 178.635 253.84 178.916 254.46 179.479C255.09 180.05 255.405 180.806 255.405 181.746C255.405 182.773 254.799 183.893 253.588 185.104L250.986 187.692H255.594V189Z" fill="#22215B"/>
<path d="M242.166 137.755L244.841 136.824H246.004V147H244.667L244.667 138.278L242.501 138.918L242.166 137.755ZM249.586 140.793H251.069C252.029 140.793 252.838 141.079 253.497 141.651C254.165 142.222 254.5 143.002 254.5 143.991C254.5 144.989 254.161 145.769 253.482 146.331C252.794 146.903 251.97 147.189 251.011 147.189C250.216 147.189 249.514 147 248.903 146.622C248.302 146.234 247.886 145.697 247.653 145.008L248.801 144.354C248.937 144.839 249.199 145.212 249.586 145.474C249.974 145.735 250.449 145.866 251.011 145.866C251.66 145.866 252.179 145.701 252.566 145.372C252.964 145.033 253.162 144.572 253.162 143.991C253.162 143.409 252.964 142.949 252.566 142.61C252.179 142.271 251.67 142.101 251.04 142.101H248.162L248.54 136.824H254.107V138.089H249.761L249.586 140.793Z" fill="#22215B"/>
<path d="M250.399 101.738C250.894 101.99 251.281 102.329 251.562 102.755C251.843 103.182 251.984 103.666 251.984 104.209C251.984 105.139 251.659 105.871 251.01 106.404C250.361 106.927 249.522 107.189 248.495 107.189C247.477 107.189 246.644 106.927 245.995 106.404C245.345 105.871 245.021 105.139 245.021 104.209C245.021 103.666 245.161 103.182 245.442 102.755C245.723 102.329 246.111 101.99 246.605 101.738C245.772 101.214 245.355 100.473 245.355 99.5137C245.355 98.593 245.66 97.8856 246.271 97.3913C246.891 96.8874 247.632 96.6354 248.495 96.6354C249.367 96.6354 250.109 96.8874 250.719 97.3913C251.339 97.8856 251.649 98.593 251.649 99.5137C251.649 100.473 251.233 101.214 250.399 101.738ZM248.495 97.9292C247.981 97.9292 247.55 98.0648 247.201 98.3362C246.862 98.6075 246.692 99.0097 246.692 99.5427C246.692 100.056 246.867 100.459 247.216 100.749C247.565 101.03 247.991 101.171 248.495 101.171C248.999 101.171 249.425 101.03 249.774 100.749C250.123 100.459 250.298 100.056 250.298 99.5427C250.298 99.0097 250.128 98.6075 249.789 98.3362C249.45 98.0648 249.018 97.9292 248.495 97.9292ZM248.495 105.895C249.144 105.895 249.663 105.745 250.05 105.445C250.448 105.134 250.646 104.694 250.646 104.122C250.646 103.56 250.448 103.128 250.05 102.828C249.663 102.518 249.144 102.363 248.495 102.363C247.855 102.363 247.337 102.518 246.94 102.828C246.552 103.128 246.358 103.56 246.358 104.122C246.358 104.694 246.552 105.134 246.94 105.445C247.337 105.745 247.855 105.895 248.495 105.895Z" fill="#DCDBFF"/>
<path d="M244.96 57.5106C245.309 57.5106 245.648 57.4816 245.977 57.4234C246.307 57.3653 246.602 57.2684 246.864 57.1327C247.135 56.997 247.363 56.8226 247.547 56.6094C247.741 56.3962 247.867 56.1345 247.925 55.8244H249.277V66H247.46V58.8189H244.96V57.5106Z" fill="#22215B" fill-opacity="0.3"/>
<path d="M307.835 219.016L305.626 221.996C306.42 222.142 307.06 222.481 307.545 223.014C308.029 223.547 308.271 224.206 308.271 224.991C308.271 225.989 307.932 226.769 307.254 227.331C306.566 227.903 305.742 228.189 304.783 228.189C303.988 228.189 303.295 228.01 302.704 227.651C302.113 227.293 301.691 226.784 301.439 226.125L302.573 225.456C302.873 226.396 303.61 226.866 304.783 226.866C305.422 226.866 305.936 226.701 306.323 226.372C306.721 226.033 306.919 225.572 306.919 224.991C306.919 224.409 306.721 223.949 306.323 223.61C305.936 223.271 305.422 223.101 304.783 223.101H304.434L303.896 222.273L306.251 219.089H301.73V217.824H307.835V219.016ZM316.283 226.75C315.605 227.709 314.641 228.189 313.391 228.189C312.14 228.189 311.176 227.709 310.498 226.75C309.81 225.781 309.466 224.502 309.466 222.912C309.466 221.323 309.81 220.044 310.498 219.075C311.176 218.115 312.14 217.635 313.391 217.635C314.641 217.635 315.605 218.115 316.283 219.075C316.971 220.044 317.315 221.323 317.315 222.912C317.315 224.502 316.971 225.781 316.283 226.75ZM310.818 222.912C310.818 224.172 311.04 225.146 311.486 225.834C311.932 226.522 312.567 226.866 313.391 226.866C314.214 226.866 314.849 226.522 315.295 225.834C315.75 225.146 315.978 224.172 315.978 222.912C315.978 221.652 315.75 220.678 315.295 219.99C314.849 219.293 314.214 218.944 313.391 218.944C312.567 218.944 311.932 219.288 311.486 219.976C311.04 220.664 310.818 221.643 310.818 222.912Z" fill="#22215B"/>
<path d="M307.942 189H301.372V187.895L304.962 184.232C305.922 183.273 306.401 182.449 306.401 181.761C306.401 181.199 306.227 180.758 305.878 180.438C305.539 180.108 305.112 179.944 304.599 179.944C303.639 179.944 302.942 180.399 302.506 181.31L301.372 180.641C301.682 179.992 302.118 179.498 302.68 179.159C303.242 178.81 303.877 178.635 304.584 178.635C305.447 178.635 306.188 178.916 306.808 179.479C307.438 180.05 307.753 180.806 307.753 181.746C307.753 182.773 307.148 183.893 305.936 185.104L303.334 187.692H307.942V189ZM315.175 180.016L312.966 182.996C313.76 183.142 314.4 183.481 314.885 184.014C315.369 184.547 315.611 185.206 315.611 185.991C315.611 186.989 315.272 187.769 314.594 188.331C313.906 188.903 313.082 189.189 312.123 189.189C311.328 189.189 310.635 189.01 310.044 188.651C309.453 188.293 309.031 187.784 308.779 187.125L309.913 186.456C310.214 187.396 310.95 187.866 312.123 187.866C312.762 187.866 313.276 187.701 313.664 187.372C314.061 187.033 314.26 186.572 314.26 185.991C314.26 185.409 314.061 184.949 313.664 184.61C313.276 184.271 312.762 184.101 312.123 184.101H311.774L311.236 183.273L313.591 180.089H309.07V178.824H315.175V180.016Z" fill="#22215B"/>
<path d="M302.202 137.755L304.877 136.824H306.039L306.039 147H304.702V138.278L302.536 138.918L302.202 137.755ZM311.09 140.342C312.108 140.342 312.946 140.662 313.605 141.302C314.264 141.932 314.593 142.75 314.593 143.758C314.593 144.766 314.264 145.59 313.605 146.23C312.946 146.869 312.108 147.189 311.09 147.189C310.053 147.189 309.21 146.869 308.561 146.23C307.911 145.59 307.587 144.766 307.587 143.758C307.587 142.964 307.79 142.285 308.197 141.723L311.468 136.824H313.009L310.61 140.371C310.901 140.352 311.061 140.342 311.09 140.342ZM311.09 141.636C310.441 141.636 309.918 141.83 309.52 142.217C309.123 142.605 308.924 143.119 308.924 143.758C308.924 144.398 309.123 144.916 309.52 145.314C309.927 145.701 310.451 145.895 311.09 145.895C311.73 145.895 312.248 145.701 312.646 145.314C313.053 144.916 313.256 144.398 313.256 143.758C313.256 143.119 313.053 142.605 312.646 142.217C312.248 141.83 311.73 141.636 311.09 141.636Z" fill="#22215B"/>
<path d="M312.003 100.052C312.003 100.846 311.794 101.529 311.378 102.101H311.392L308.107 107H306.581L308.994 103.439C308.703 103.458 308.538 103.468 308.499 103.468C307.472 103.468 306.629 103.153 305.97 102.523C305.321 101.883 304.996 101.059 304.996 100.052C304.996 99.0339 305.321 98.2151 305.97 97.5948C306.619 96.9552 307.462 96.6354 308.499 96.6354C309.517 96.6354 310.355 96.9552 311.014 97.5948C311.673 98.2247 312.003 99.0436 312.003 100.052ZM308.499 97.9292C307.86 97.9292 307.336 98.123 306.929 98.5106C306.532 98.8983 306.333 99.4119 306.333 100.052C306.333 100.691 306.532 101.21 306.929 101.607C307.336 101.995 307.86 102.188 308.499 102.188C309.139 102.188 309.657 101.995 310.055 101.607C310.462 101.21 310.665 100.691 310.665 100.052C310.665 99.4119 310.467 98.8983 310.069 98.5106C309.672 98.123 309.149 97.9292 308.499 97.9292Z" fill="#22215B"/>
<path d="M312.276 64.0878H305.327C305.337 63.2447 305.54 62.5082 305.938 61.8783C306.335 61.2483 306.878 60.7008 307.566 60.2356C307.895 59.9934 308.239 59.7608 308.598 59.5379C308.956 59.3053 309.286 59.0582 309.586 58.7965C309.887 58.5349 310.134 58.2538 310.328 57.9534C310.521 57.6433 310.623 57.2895 310.633 56.8922C310.633 56.7081 310.609 56.5143 310.56 56.3108C310.521 56.0975 310.439 55.9037 310.313 55.7293C310.187 55.5452 310.013 55.3949 309.79 55.2787C309.567 55.1527 309.276 55.0897 308.918 55.0897C308.588 55.0897 308.312 55.1575 308.089 55.2932C307.876 55.4192 307.701 55.5985 307.566 55.831C307.44 56.0539 307.343 56.3204 307.275 56.6306C307.217 56.9407 307.183 57.275 307.173 57.6336H305.516C305.516 57.0715 305.589 56.553 305.734 56.0782C305.889 55.5936 306.117 55.1769 306.417 54.828C306.718 54.4791 307.081 54.2078 307.508 54.014C307.944 53.8105 308.448 53.7087 309.019 53.7087C309.64 53.7087 310.158 53.8105 310.575 54.014C310.991 54.2175 311.326 54.4743 311.578 54.7844C311.839 55.0945 312.024 55.4337 312.13 55.802C312.237 56.1605 312.29 56.5046 312.29 56.8341C312.29 57.2411 312.227 57.6094 312.101 57.9389C311.975 58.2683 311.805 58.5736 311.592 58.8547C311.379 59.126 311.137 59.378 310.865 59.6106C310.594 59.8431 310.313 60.0612 310.022 60.2647C309.732 60.4682 309.441 60.662 309.15 60.8462C308.859 61.0303 308.588 61.2144 308.336 61.3986C308.094 61.5827 307.881 61.7765 307.696 61.98C307.512 62.1738 307.386 62.3822 307.319 62.6051H312.276V64.0878Z" fill="#22215B"/>
<path d="M368.007 219.016L365.798 221.996C366.592 222.142 367.232 222.481 367.717 223.014C368.201 223.547 368.443 224.206 368.443 224.991C368.443 225.989 368.104 226.769 367.426 227.331C366.738 227.903 365.914 228.189 364.955 228.189C364.16 228.189 363.467 228.01 362.876 227.651C362.285 227.293 361.863 226.784 361.611 226.125L362.745 225.456C363.045 226.396 363.782 226.866 364.955 226.866C365.594 226.866 366.108 226.701 366.495 226.372C366.893 226.033 367.091 225.572 367.091 224.991C367.091 224.409 366.893 223.949 366.495 223.61C366.108 223.271 365.594 223.101 364.955 223.101H364.606L364.068 222.273L366.423 219.089H361.902V217.824H368.007V219.016ZM368.818 218.755L371.493 217.824H372.656V228H371.318V219.278L369.152 219.918L368.818 218.755Z" fill="#22215B"/>
<path d="M365.673 189H359.102V187.895L362.693 184.232C363.652 183.273 364.132 182.449 364.132 181.761C364.132 181.199 363.957 180.758 363.608 180.438C363.269 180.108 362.843 179.944 362.329 179.944C361.37 179.944 360.672 180.399 360.236 181.31L359.102 180.641C359.412 179.992 359.848 179.498 360.41 179.159C360.972 178.81 361.607 178.635 362.315 178.635C363.177 178.635 363.918 178.916 364.539 179.479C365.169 180.05 365.484 180.806 365.484 181.746C365.484 182.773 364.878 183.893 363.667 185.104L361.064 187.692H365.673V189ZM372.879 185.802H374.115V187.067H372.879V189H371.527V187.067H366.338V185.802L369.987 178.824H371.44L367.791 185.802H371.527V182.924H372.879V185.802Z" fill="#22215B"/>
<path d="M360.55 137.755L363.224 136.824H364.387L364.387 147H363.05V138.278L360.884 138.918L360.55 137.755ZM365.789 138.104V136.824H372.142V138.031L368.435 147H367.025L370.703 138.104H365.789Z" fill="#22215B"/>
<path d="M359.535 97.7547L362.209 96.8244H363.372L363.372 107H362.035V98.278L359.869 98.9177L359.535 97.7547ZM371.984 105.75C371.306 106.709 370.342 107.189 369.092 107.189C367.841 107.189 366.877 106.709 366.199 105.75C365.511 104.781 365.167 103.502 365.167 101.912C365.167 100.323 365.511 99.0436 366.199 98.0745C366.877 97.1151 367.841 96.6354 369.092 96.6354C370.342 96.6354 371.306 97.1151 371.984 98.0745C372.672 99.0436 373.016 100.323 373.016 101.912C373.016 103.502 372.672 104.781 371.984 105.75ZM366.519 101.912C366.519 103.172 366.742 104.146 367.187 104.834C367.633 105.522 368.268 105.866 369.092 105.866C369.915 105.866 370.55 105.522 370.996 104.834C371.451 104.146 371.679 103.172 371.679 101.912C371.679 100.652 371.451 99.6784 370.996 98.9903C370.55 98.2926 369.915 97.9437 369.092 97.9437C368.268 97.9437 367.633 98.2877 367.187 98.9758C366.742 99.6639 366.519 100.643 366.519 101.912Z" fill="#22215B"/>
<path d="M365.645 58.1278C365.916 58.1375 366.187 58.1181 366.459 58.0697C366.73 58.0212 366.972 57.9389 367.186 57.8226C367.399 57.6966 367.568 57.527 367.694 57.3138C367.83 57.1006 367.898 56.8389 367.898 56.5288C367.898 56.0927 367.748 55.7438 367.447 55.4822C367.157 55.2205 366.779 55.0897 366.313 55.0897C366.023 55.0897 365.771 55.1478 365.558 55.2641C365.344 55.3804 365.165 55.5403 365.02 55.7438C364.884 55.9376 364.782 56.1605 364.714 56.4125C364.647 56.6548 364.618 56.9068 364.627 57.1684H362.97C362.989 56.6742 363.081 56.2187 363.246 55.802C363.411 55.3756 363.634 55.0073 363.915 54.6972C364.206 54.3871 364.555 54.1448 364.962 53.9704C365.369 53.7959 365.829 53.7087 366.343 53.7087C366.74 53.7087 367.127 53.7668 367.505 53.8831C367.893 53.9994 368.237 54.169 368.538 54.3919C368.848 54.6148 369.095 54.9007 369.279 55.2496C369.463 55.5888 369.555 55.9813 369.555 56.427C369.555 56.9407 369.439 57.3913 369.206 57.7789C368.974 58.1569 368.61 58.4331 368.116 58.6075V58.6366C368.697 58.7529 369.148 59.0436 369.468 59.5088C369.797 59.9643 369.962 60.5215 369.962 61.1805C369.962 61.6651 369.865 62.1012 369.671 62.4888C369.478 62.8668 369.216 63.1914 368.886 63.4628C368.557 63.7244 368.174 63.9279 367.738 64.0733C367.302 64.2187 366.842 64.2913 366.357 64.2913C365.766 64.2913 365.247 64.209 364.802 64.0442C364.366 63.8698 363.997 63.6275 363.697 63.3174C363.406 63.0073 363.183 62.6342 363.028 62.1981C362.873 61.762 362.791 61.2774 362.781 60.7444H364.438C364.419 61.3646 364.569 61.8831 364.889 62.2998C365.218 62.7069 365.708 62.9104 366.357 62.9104C366.909 62.9104 367.37 62.7553 367.738 62.4452C368.116 62.1254 368.305 61.6748 368.305 61.0933C368.305 60.696 368.227 60.381 368.072 60.1484C367.917 59.9158 367.714 59.7414 367.462 59.6251C367.21 59.4991 366.924 59.4216 366.604 59.3925C366.294 59.3634 365.974 59.3537 365.645 59.3634V58.1278Z" fill="#22215B"/>
<g opacity="0.653918">
<path d="M8.69526 15.2035C7.64117 15.2035 6.74363 14.9687 6.00263 14.499C5.27208 14.019 4.76069 13.3562 4.46846 12.5109L6.01829 11.6029C6.45662 12.8344 7.3646 13.4502 8.74222 13.4502C9.41016 13.4502 9.91633 13.3197 10.2607 13.0588C10.6051 12.7979 10.7773 12.4483 10.7773 12.0099C10.7773 11.5716 10.5947 11.2324 10.2294 10.9924C9.86415 10.7523 9.21708 10.4914 8.28823 10.2096C7.33851 9.92785 6.57142 9.59388 5.98698 9.20773C5.27729 8.70677 4.92245 7.971 4.92245 7.0004C4.92245 6.0298 5.26686 5.26272 5.95567 4.69915C6.63404 4.12514 7.46375 3.83813 8.44478 3.83813C9.31101 3.83813 10.0729 4.05208 10.7304 4.47998C11.3983 4.89744 11.9097 5.48711 12.2645 6.24897L10.746 7.12564C10.2868 6.10286 9.51974 5.59147 8.44478 5.59147C7.92295 5.59147 7.50549 5.71671 7.1924 5.96719C6.8793 6.20723 6.72275 6.53598 6.72275 6.95344C6.72275 7.36046 6.8793 7.68399 7.1924 7.92403C7.50549 8.15364 8.08472 8.3989 8.93008 8.65981C9.45191 8.83723 9.75456 8.9416 9.83806 8.97291C9.97373 9.01465 10.2451 9.11902 10.6521 9.286C10.9861 9.42168 11.2522 9.56779 11.4505 9.72434C12.2645 10.361 12.6403 11.1124 12.5776 11.9786C12.5776 12.9701 12.2176 13.7581 11.4975 14.3425C10.7982 14.9165 9.86415 15.2035 8.69526 15.2035Z" fill="#22215B"/>
<path d="M70.3222 4.04165L72.2477 4.04165V15H70.4474V7.18826L67.1129 12.6987H66.8938L63.5593 7.1726V15H61.759V4.04165H63.7002L67.0034 9.52082L70.3222 4.04165Z" fill="#22215B"/>
<path d="M123.008 4.04165H130.992V5.76367L127.908 5.76367V15H126.107V5.76367H123.008V4.04165Z" fill="#22215B"/>
<path d="M185.175 15H183.093L179.993 4.04165H181.888L184.189 12.6048L186.678 4.04165H188.337L190.811 12.6048L193.112 4.04165H195.006L191.907 15H189.825L187.508 7.0004L185.175 15Z" fill="#22215B"/>
<path d="M245.008 4.04165H252.992V5.76367L249.908 5.76367V15H248.107V5.76367H245.008V4.04165Z" fill="#22215B"/>
<path d="M312.463 4.04165V5.76367L307.845 5.76367V8.83201H312.306V10.554H307.845V15H306.045V4.04165H312.463Z" fill="#22215B"/>
<path d="M366.695 14.2035C365.641 14.2035 364.744 13.9687 364.003 13.499C363.272 13.019 362.761 12.3562 362.468 11.5109L364.018 10.6029C364.457 11.8344 365.365 12.4502 366.742 12.4502C367.41 12.4502 367.916 12.3197 368.261 12.0588C368.605 11.7979 368.777 11.4483 368.777 11.0099C368.777 10.5716 368.595 10.2324 368.229 9.99237C367.864 9.75233 367.217 9.49142 366.288 9.20963C365.339 8.92785 364.571 8.59388 363.987 8.20773C363.277 7.70677 362.922 6.971 362.922 6.0004C362.922 5.0298 363.267 4.26272 363.956 3.69915C364.634 3.12514 365.464 2.83813 366.445 2.83813C367.311 2.83813 368.073 3.05208 368.73 3.47998C369.398 3.89744 369.91 4.48711 370.265 5.24897L368.746 6.12564C368.287 5.10286 367.52 4.59147 366.445 4.59147C365.923 4.59147 365.505 4.71671 365.192 4.96719C364.879 5.20723 364.723 5.53598 364.723 5.95344C364.723 6.36046 364.879 6.68399 365.192 6.92403C365.505 7.15364 366.085 7.3989 366.93 7.65981C367.452 7.83723 367.755 7.9416 367.838 7.97291C367.974 8.01465 368.245 8.11902 368.652 8.286C368.986 8.42168 369.252 8.56779 369.451 8.72434C370.265 9.36096 370.64 10.1124 370.578 10.9786C370.578 11.9701 370.218 12.7581 369.497 13.3425C368.798 13.9165 367.864 14.2035 366.695 14.2035Z" fill="#22215B"/>
</g>
</svg>
