<svg width="26" height="24" viewBox="0 0 26 24" fill="none" xmlns="http://www.w3.org/2000/svg">
<path fill-rule="evenodd" clip-rule="evenodd" d="M11.2423 0.155879C15.5761 -0.707876 19.7895 2.10503 20.6533 6.43883C23.4492 6.78106 25.556 9.14658 25.5736 11.9634C25.5927 15.0565 23.1007 17.5796 20.0077 17.599H16.0069C15.565 17.599 15.2068 17.2407 15.2068 16.7988C15.2068 16.3569 15.565 15.9987 16.0069 15.9987H20.0075C22.2171 15.9987 24.0082 14.2076 24.0082 11.9981C24.0082 9.78849 22.2171 7.99738 20.0075 7.99738C19.5895 8.00011 19.2321 7.69788 19.165 7.28522C18.8235 4.33281 16.4945 2.00377 13.5421 1.66233C10.0303 1.25611 6.85408 3.77362 6.44786 7.28522C6.40299 7.69066 6.06037 7.99738 5.65259 7.99738C3.44296 7.9843 1.64131 9.76488 1.62824 11.9745C1.61536 14.1839 3.39575 15.9856 5.60537 15.9987H9.60592C10.0478 15.9987 10.4061 16.3569 10.4061 16.7988C10.4061 17.2407 10.0478 17.599 9.60592 17.599H5.60537C2.75851 17.6009 0.363141 15.4672 0.037306 12.6391C-0.316625 9.56607 1.88754 6.78808 4.96034 6.43395C5.59406 3.26458 8.07255 0.787647 11.2423 0.155879ZM13.6065 21.2682L15.6348 19.2393C15.6413 19.2324 15.6479 19.226 15.6545 19.2195C15.9724 18.9126 16.4789 18.9214 16.786 19.2393C17.0929 19.5571 17.0841 20.0636 16.7663 20.3705L13.3729 23.7647C13.299 23.8386 13.2112 23.8973 13.1146 23.9375C12.9175 24.0208 12.6953 24.0208 12.4984 23.9375C12.4018 23.8973 12.314 23.8386 12.2399 23.7647L8.84654 20.3705C8.8399 20.3641 8.83346 20.3576 8.82683 20.3508C8.51992 20.033 8.5287 19.5265 8.84654 19.2195C9.16437 18.9124 9.67107 18.9212 9.97798 19.2393L12.0064 21.2682L12.0064 11.198C12.0064 10.756 12.3646 10.3978 12.8065 10.3978C13.2482 10.3978 13.6065 10.756 13.6065 11.198L13.6065 21.2682Z" fill="white"/>
</svg>
