<svg width="55" height="55" viewBox="0 0 55 55" fill="none" xmlns="http://www.w3.org/2000/svg">
<circle cx="27.5" cy="27.5" r="27.5" fill="#EEF7FE"/>
<path d="M30.0964 34.6667C30.0964 36.5077 28.6039 38 26.763 38C24.922 38 23.4297 36.5077 23.4297 34.6667C23.4297 32.8257 24.922 31.3333 26.763 31.3333C28.6039 31.3333 30.0964 32.8257 30.0964 34.6667Z" fill="#22215B"/>
<path d="M32.603 27.9342C29.778 27.5308 27.5964 25.1016 27.5964 22.1667C27.5964 21.3333 27.7746 20.5426 28.0905 19.825C27.6638 19.725 27.2206 19.6667 26.763 19.6667C23.5464 19.6667 20.9297 22.2833 20.9297 25.5V27.8233C20.9297 29.4725 20.2072 31.0292 18.9396 32.1008C18.6155 32.3774 18.4297 32.7816 18.4297 33.2083C18.4297 34.0126 19.0838 34.6667 19.888 34.6667H33.638C34.4423 34.6667 35.0964 34.0126 35.0964 33.2083C35.0964 32.7816 34.9106 32.3774 34.5781 32.0933C33.3481 31.0525 32.6347 29.5416 32.603 27.9342Z" fill="#22215B"/>
<path d="M37.5966 22.1667C37.5966 24.4679 35.7311 26.3333 33.4299 26.3333C31.1287 26.3333 29.2632 24.4679 29.2632 22.1667C29.2632 19.8655 31.1287 18 33.4299 18C35.7311 18 37.5966 19.8655 37.5966 22.1667Z" fill="#4CE364"/>
</svg>
