<svg width="173" height="173" viewBox="0 0 173 173" fill="none" xmlns="http://www.w3.org/2000/svg">
<path d="M86.5 173C69.3919 173 52.668 167.927 38.4432 158.422C24.2183 148.917 13.1314 135.408 6.58442 119.602C0.037438 103.796 -1.67555 86.404 1.66208 69.6247C4.9997 52.8453 13.238 37.4325 25.3353 25.3353L59.7376 59.7376C54.4445 65.0307 50.8399 71.7745 49.3795 79.1163C47.9192 86.458 48.6687 94.0679 51.5333 100.984C54.3979 107.899 59.2489 113.81 65.4729 117.969C71.697 122.128 79.0144 124.348 86.5 124.348V173Z" fill="#567DF4"/>
<path d="M144.932 150.28C128.999 164.877 108.18 172.982 86.5716 173L86.5313 124.348C95.986 124.34 105.095 120.794 112.067 114.407L144.932 150.28Z" fill="#4CE364"/>
<path d="M25.3353 25.3353C36.6373 14.0332 50.8499 6.0836 66.3958 2.36872C81.9417 -1.34615 98.2129 -0.681038 113.404 4.29025C128.594 9.26154 142.111 18.3446 152.453 30.5314C162.795 42.7182 169.558 57.5322 171.991 73.3295L123.906 80.7373C122.842 73.8253 119.882 67.3435 115.357 62.0112C110.832 56.6789 104.918 52.7046 98.2716 50.5295C91.6249 48.3543 84.5055 48.0633 77.7035 49.6887C70.9015 51.3141 64.6828 54.7924 59.7376 59.7376L25.3353 25.3353Z" fill="#22215B"/>
<path d="M171.979 73.2505C174.174 87.4092 172.817 101.891 168.031 115.396C163.245 128.901 155.179 141.005 144.558 150.622L111.903 114.556C116.55 110.348 120.079 105.052 122.173 99.1433C124.268 93.2344 124.861 86.8978 123.901 80.7027L171.979 73.2505Z" fill="#FFC700"/>
<path d="M19.792 100.044C20.432 100.164 20.956 100.44 21.364 100.872C21.772 101.304 21.976 101.852 21.976 102.516C21.976 103.332 21.696 103.976 21.136 104.448C20.576 104.92 19.896 105.156 19.096 105.156C18.456 105.156 17.888 105.012 17.392 104.724C16.896 104.428 16.544 104.004 16.336 103.452L17.272 102.9C17.52 103.676 18.128 104.064 19.096 104.064C19.616 104.064 20.04 103.928 20.368 103.656C20.696 103.384 20.86 103.004 20.86 102.516C20.86 102.028 20.696 101.648 20.368 101.376C20.04 101.096 19.616 100.956 19.096 100.956H18.808L18.364 100.272L20.308 97.644H16.576V96.6H21.616V97.584L19.792 100.044ZM25.5447 99.876C26.3367 99.876 27.0047 100.112 27.5487 100.584C28.1007 101.048 28.3767 101.692 28.3767 102.516C28.3767 103.332 28.0967 103.976 27.5367 104.448C26.9767 104.92 26.2967 105.156 25.4967 105.156C24.8567 105.156 24.2847 105.004 23.7807 104.7C23.2767 104.388 22.9247 103.94 22.7247 103.356L23.6727 102.816C23.7847 103.224 24.0007 103.536 24.3207 103.752C24.6407 103.96 25.0327 104.064 25.4967 104.064C26.0247 104.064 26.4527 103.928 26.7807 103.656C27.1087 103.384 27.2727 103.004 27.2727 102.516C27.2727 102.028 27.1087 101.648 26.7807 101.376C26.4527 101.096 26.0327 100.956 25.5207 100.956H23.1447L23.4567 96.6H28.0527V97.644H24.4647L24.3207 99.876H25.5447ZM31.1419 100.164C30.5979 100.164 30.1459 99.984 29.7859 99.624C29.4259 99.264 29.2459 98.824 29.2459 98.304C29.2459 97.792 29.4259 97.356 29.7859 96.996C30.1539 96.628 30.6059 96.444 31.1419 96.444C31.6859 96.444 32.1379 96.624 32.4979 96.984C32.8579 97.344 33.0379 97.784 33.0379 98.304C33.0379 98.824 32.8579 99.264 32.4979 99.624C32.1459 99.984 31.6939 100.164 31.1419 100.164ZM30.4459 99.012C30.6299 99.196 30.8619 99.288 31.1419 99.288C31.4219 99.288 31.6499 99.192 31.8259 99C32.0099 98.808 32.1019 98.576 32.1019 98.304C32.1019 98.032 32.0099 97.804 31.8259 97.62C31.6499 97.428 31.4219 97.332 31.1419 97.332C30.8619 97.332 30.6299 97.428 30.4459 97.62C30.2699 97.804 30.1819 98.032 30.1819 98.304C30.1819 98.584 30.2699 98.82 30.4459 99.012ZM29.8099 103.812L35.3899 97.572L35.9779 97.896L30.3859 104.148L29.8099 103.812ZM36.1219 104.604C35.7619 104.964 35.3099 105.144 34.7659 105.144C34.2219 105.144 33.7699 104.964 33.4099 104.604C33.0499 104.244 32.8699 103.804 32.8699 103.284C32.8699 102.764 33.0499 102.324 33.4099 101.964C33.7699 101.604 34.2219 101.424 34.7659 101.424C35.3099 101.424 35.7619 101.604 36.1219 101.964C36.4819 102.324 36.6619 102.764 36.6619 103.284C36.6619 103.804 36.4819 104.244 36.1219 104.604ZM34.0699 103.98C34.2539 104.164 34.4859 104.256 34.7659 104.256C35.0459 104.256 35.2739 104.164 35.4499 103.98C35.6339 103.788 35.7259 103.556 35.7259 103.284C35.7259 103.012 35.6339 102.784 35.4499 102.6C35.2739 102.408 35.0459 102.312 34.7659 102.312C34.4859 102.312 34.2539 102.408 34.0699 102.6C33.8939 102.784 33.8059 103.012 33.8059 103.284C33.8059 103.556 33.8939 103.788 34.0699 103.98Z" fill="white"/>
<path d="M91.792 27.044C92.432 27.164 92.956 27.44 93.364 27.872C93.772 28.304 93.976 28.852 93.976 29.516C93.976 30.332 93.696 30.976 93.136 31.448C92.576 31.92 91.896 32.156 91.096 32.156C90.456 32.156 89.888 32.012 89.392 31.724C88.896 31.428 88.544 31.004 88.336 30.452L89.272 29.9C89.52 30.676 90.128 31.064 91.096 31.064C91.616 31.064 92.04 30.928 92.368 30.656C92.696 30.384 92.86 30.004 92.86 29.516C92.86 29.028 92.696 28.648 92.368 28.376C92.04 28.096 91.616 27.956 91.096 27.956H90.808L90.364 27.272L92.308 24.644H88.576V23.6H93.616V24.584L91.792 27.044ZM97.5447 26.876C98.3367 26.876 99.0047 27.112 99.5487 27.584C100.101 28.048 100.377 28.692 100.377 29.516C100.377 30.332 100.097 30.976 99.5367 31.448C98.9767 31.92 98.2967 32.156 97.4967 32.156C96.8567 32.156 96.2847 32.004 95.7807 31.7C95.2767 31.388 94.9247 30.94 94.7247 30.356L95.6727 29.816C95.7847 30.224 96.0007 30.536 96.3207 30.752C96.6407 30.96 97.0327 31.064 97.4967 31.064C98.0247 31.064 98.4527 30.928 98.7807 30.656C99.1087 30.384 99.2727 30.004 99.2727 29.516C99.2727 29.028 99.1087 28.648 98.7807 28.376C98.4527 28.096 98.0327 27.956 97.5207 27.956H95.1447L95.4567 23.6H100.053V24.644H96.4647L96.3207 26.876H97.5447ZM103.142 27.164C102.598 27.164 102.146 26.984 101.786 26.624C101.426 26.264 101.246 25.824 101.246 25.304C101.246 24.792 101.426 24.356 101.786 23.996C102.154 23.628 102.606 23.444 103.142 23.444C103.686 23.444 104.138 23.624 104.498 23.984C104.858 24.344 105.038 24.784 105.038 25.304C105.038 25.824 104.858 26.264 104.498 26.624C104.146 26.984 103.694 27.164 103.142 27.164ZM102.446 26.012C102.63 26.196 102.862 26.288 103.142 26.288C103.422 26.288 103.65 26.192 103.826 26C104.01 25.808 104.102 25.576 104.102 25.304C104.102 25.032 104.01 24.804 103.826 24.62C103.65 24.428 103.422 24.332 103.142 24.332C102.862 24.332 102.63 24.428 102.446 24.62C102.27 24.804 102.182 25.032 102.182 25.304C102.182 25.584 102.27 25.82 102.446 26.012ZM101.81 30.812L107.39 24.572L107.978 24.896L102.386 31.148L101.81 30.812ZM108.122 31.604C107.762 31.964 107.31 32.144 106.766 32.144C106.222 32.144 105.77 31.964 105.41 31.604C105.05 31.244 104.87 30.804 104.87 30.284C104.87 29.764 105.05 29.324 105.41 28.964C105.77 28.604 106.222 28.424 106.766 28.424C107.31 28.424 107.762 28.604 108.122 28.964C108.482 29.324 108.662 29.764 108.662 30.284C108.662 30.804 108.482 31.244 108.122 31.604ZM106.07 30.98C106.254 31.164 106.486 31.256 106.766 31.256C107.046 31.256 107.274 31.164 107.45 30.98C107.634 30.788 107.726 30.556 107.726 30.284C107.726 30.012 107.634 29.784 107.45 29.6C107.274 29.408 107.046 29.312 106.766 29.312C106.486 29.312 106.254 29.408 106.07 29.6C105.894 29.784 105.806 30.012 105.806 30.284C105.806 30.556 105.894 30.788 106.07 30.98Z" fill="white"/>
<path d="M136.376 103.6H137.336V112H136.232V104.8L134.444 105.328L134.168 104.368L136.376 103.6ZM141.517 106.876C142.309 106.876 142.977 107.112 143.521 107.584C144.073 108.048 144.349 108.692 144.349 109.516C144.349 110.332 144.069 110.976 143.509 111.448C142.949 111.92 142.269 112.156 141.469 112.156C140.829 112.156 140.257 112.004 139.753 111.7C139.249 111.388 138.897 110.94 138.697 110.356L139.645 109.816C139.757 110.224 139.973 110.536 140.293 110.752C140.613 110.96 141.005 111.064 141.469 111.064C141.997 111.064 142.425 110.928 142.753 110.656C143.081 110.384 143.245 110.004 143.245 109.516C143.245 109.028 143.081 108.648 142.753 108.376C142.425 108.096 142.005 107.956 141.493 107.956H139.117L139.429 103.6H144.025V104.644H140.437L140.293 106.876H141.517ZM147.115 107.164C146.571 107.164 146.119 106.984 145.759 106.624C145.399 106.264 145.219 105.824 145.219 105.304C145.219 104.792 145.399 104.356 145.759 103.996C146.127 103.628 146.579 103.444 147.115 103.444C147.659 103.444 148.111 103.624 148.471 103.984C148.831 104.344 149.011 104.784 149.011 105.304C149.011 105.824 148.831 106.264 148.471 106.624C148.119 106.984 147.667 107.164 147.115 107.164ZM146.419 106.012C146.603 106.196 146.835 106.288 147.115 106.288C147.395 106.288 147.623 106.192 147.799 106C147.983 105.808 148.075 105.576 148.075 105.304C148.075 105.032 147.983 104.804 147.799 104.62C147.623 104.428 147.395 104.332 147.115 104.332C146.835 104.332 146.603 104.428 146.419 104.62C146.243 104.804 146.155 105.032 146.155 105.304C146.155 105.584 146.243 105.82 146.419 106.012ZM145.783 110.812L151.363 104.572L151.951 104.896L146.359 111.148L145.783 110.812ZM152.095 111.604C151.735 111.964 151.283 112.144 150.739 112.144C150.195 112.144 149.743 111.964 149.383 111.604C149.023 111.244 148.843 110.804 148.843 110.284C148.843 109.764 149.023 109.324 149.383 108.964C149.743 108.604 150.195 108.424 150.739 108.424C151.283 108.424 151.735 108.604 152.095 108.964C152.455 109.324 152.635 109.764 152.635 110.284C152.635 110.804 152.455 111.244 152.095 111.604ZM150.043 110.98C150.227 111.164 150.459 111.256 150.739 111.256C151.019 111.256 151.247 111.164 151.423 110.98C151.607 110.788 151.699 110.556 151.699 110.284C151.699 110.012 151.607 109.784 151.423 109.6C151.247 109.408 151.019 109.312 150.739 109.312C150.459 109.312 150.227 109.408 150.043 109.6C149.867 109.784 149.779 110.012 149.779 110.284C149.779 110.556 149.867 110.788 150.043 110.98Z" fill="white"/>
<path d="M101.376 141.6H102.336V150H101.232V142.8L99.444 143.328L99.168 142.368L101.376 141.6ZM106.517 144.876C107.309 144.876 107.977 145.112 108.521 145.584C109.073 146.048 109.349 146.692 109.349 147.516C109.349 148.332 109.069 148.976 108.509 149.448C107.949 149.92 107.269 150.156 106.469 150.156C105.829 150.156 105.257 150.004 104.753 149.7C104.249 149.388 103.897 148.94 103.697 148.356L104.645 147.816C104.757 148.224 104.973 148.536 105.293 148.752C105.613 148.96 106.005 149.064 106.469 149.064C106.997 149.064 107.425 148.928 107.753 148.656C108.081 148.384 108.245 148.004 108.245 147.516C108.245 147.028 108.081 146.648 107.753 146.376C107.425 146.096 107.005 145.956 106.493 145.956H104.117L104.429 141.6H109.025V142.644H105.437L105.293 144.876H106.517ZM112.115 145.164C111.571 145.164 111.119 144.984 110.759 144.624C110.399 144.264 110.219 143.824 110.219 143.304C110.219 142.792 110.399 142.356 110.759 141.996C111.127 141.628 111.579 141.444 112.115 141.444C112.659 141.444 113.111 141.624 113.471 141.984C113.831 142.344 114.011 142.784 114.011 143.304C114.011 143.824 113.831 144.264 113.471 144.624C113.119 144.984 112.667 145.164 112.115 145.164ZM111.419 144.012C111.603 144.196 111.835 144.288 112.115 144.288C112.395 144.288 112.623 144.192 112.799 144C112.983 143.808 113.075 143.576 113.075 143.304C113.075 143.032 112.983 142.804 112.799 142.62C112.623 142.428 112.395 142.332 112.115 142.332C111.835 142.332 111.603 142.428 111.419 142.62C111.243 142.804 111.155 143.032 111.155 143.304C111.155 143.584 111.243 143.82 111.419 144.012ZM110.783 148.812L116.363 142.572L116.951 142.896L111.359 149.148L110.783 148.812ZM117.095 149.604C116.735 149.964 116.283 150.144 115.739 150.144C115.195 150.144 114.743 149.964 114.383 149.604C114.023 149.244 113.843 148.804 113.843 148.284C113.843 147.764 114.023 147.324 114.383 146.964C114.743 146.604 115.195 146.424 115.739 146.424C116.283 146.424 116.735 146.604 117.095 146.964C117.455 147.324 117.635 147.764 117.635 148.284C117.635 148.804 117.455 149.244 117.095 149.604ZM115.043 148.98C115.227 149.164 115.459 149.256 115.739 149.256C116.019 149.256 116.247 149.164 116.423 148.98C116.607 148.788 116.699 148.556 116.699 148.284C116.699 148.012 116.607 147.784 116.423 147.6C116.247 147.408 116.019 147.312 115.739 147.312C115.459 147.312 115.227 147.408 115.043 147.6C114.867 147.784 114.779 148.012 114.779 148.284C114.779 148.556 114.867 148.788 115.043 148.98Z" fill="white"/>
</svg>
