<svg width="72" height="77" viewBox="0 0 72 77" fill="none" xmlns="http://www.w3.org/2000/svg">
<circle cx="36" cy="36" r="36" fill="#EEF7FE"/>
<mask id="mask0_7856_156" style="mask-type:alpha" maskUnits="userSpaceOnUse" x="1" y="3" width="70" height="70">
<path d="M70.165 37.59C70.1657 42.1321 69.2719 46.63 67.5344 50.8266C65.797 55.0232 63.25 58.8364 60.0389 62.0485C56.8278 65.2605 53.0155 67.8085 48.8197 69.5469C44.624 71.2853 40.1269 72.18 35.5854 72.18C26.4128 72.18 17.6158 68.5357 11.1298 62.0488C4.64379 55.5619 1 46.7638 1 37.59C1 28.4162 4.64379 19.6181 11.1298 13.1312C17.6158 6.64428 26.4128 3 35.5854 3C40.1269 3 44.624 3.89474 48.8197 5.63312C53.0155 7.3715 56.8278 9.91946 60.0389 13.1315C63.25 16.3436 65.797 20.1568 67.5344 24.3534C69.2719 28.55 70.1657 33.0478 70.165 37.59Z" fill="#F1F3F6"/>
</mask>
<g mask="url(#mask0_7856_156)">
<path d="M63.7211 76.6782H8.85205C8.9519 75.7067 9.44663 72.3291 11.9157 68.0118C14.8478 62.8774 27.9194 63.6083 28.3596 62.8774C28.5503 62.5596 28.6592 61.2658 28.7228 59.9084C28.7999 58.147 28.7999 56.2766 28.7999 56.2766L36.2889 58.4829L43.7778 56.2766C43.7778 56.2766 43.7778 58.1333 43.8504 59.9084C43.9185 61.2703 44.0229 62.5823 44.2181 62.9046C44.6719 63.6355 57.7254 62.9046 60.662 68.0391C63.1265 72.3291 63.6258 75.7067 63.7211 76.6782Z" fill="#E1A387"/>
<path d="M63.7211 76.6782H8.85205C8.9519 75.7067 9.44663 72.3291 11.9157 68.0118C14.3848 63.6945 24.125 63.5175 27.3475 63.1361C27.933 63.0635 28.3006 62.9909 28.3687 62.8774C28.3687 62.8774 36.1527 73.0101 44.2271 62.8774C44.2998 63.0045 44.7627 63.0862 45.4889 63.1679C48.9202 63.5311 58.2474 63.7762 60.6711 68.0118C63.1265 72.3291 63.6258 75.7067 63.7211 76.6782Z" fill="#860018"/>
<path d="M45.4802 63.1679C39.126 72.0068 31.5462 67.1629 27.3252 63.1361C27.9107 63.0635 28.2783 62.9909 28.3464 62.8774C28.3464 62.8774 36.1304 73.0101 44.2048 62.8774C44.2911 63.0045 44.754 63.0862 45.4802 63.1679Z" fill="#6B1524"/>
<path d="M23.4715 40.9777C23.4715 40.9777 19.9993 35.1123 18.5651 40.1378C17.1308 45.1633 20.5984 47.5603 22.8723 47.0836C25.1463 46.6069 23.4715 40.9777 23.4715 40.9777Z" fill="#E1A387"/>
<path d="M23.0676 41.9355C23.0676 41.9355 20.6756 38.222 19.836 39.7202C19.3249 40.7793 19.119 41.9599 19.2414 43.1295C19.2414 43.1295 19.718 41.0367 21.2748 42.2215C21.2748 42.2215 19.777 45.5719 22.8316 44.614C22.8134 44.6276 24.0706 43.6107 23.0676 41.9355Z" fill="#CE8D75"/>
<path d="M48.394 40.9777C48.394 40.9777 51.8662 35.1123 53.3004 40.1378C54.7347 45.1633 51.267 47.5603 48.9931 47.0836C46.7192 46.6069 48.394 40.9777 48.394 40.9777Z" fill="#E1A387"/>
<path d="M48.4438 42.326C48.4438 42.326 50.8357 38.6125 51.6754 40.1106C52.1866 41.1697 52.394 42.3499 52.2745 43.5199C52.2745 43.5199 51.7934 41.4271 50.2366 42.612C50.2366 42.612 51.7344 45.9623 48.6798 45.0044C48.6798 45.018 47.4271 44.0011 48.4438 42.326Z" fill="#CE8D75"/>
<path d="M48.4843 50.552C48.2211 54.8647 43.3056 58.0562 40.0922 59.4817C38.2511 60.3403 36.1849 60.5915 34.1918 60.1989C22.0461 56.6262 22.391 48.3956 22.9357 46.0849C23.4803 43.7742 22.7359 39.2753 24.1611 33.9365C24.3446 33.2456 24.6178 32.5817 24.9736 31.9617C27.1476 28.1665 31.7817 26.9453 31.7817 26.9453C39.8108 21.7564 45.4297 26.8545 47.2816 31.0311C47.4046 31.3038 47.5137 31.5826 47.6084 31.8664C49.0108 36.1655 48.7567 45.7126 48.4843 50.552Z" fill="#F2C2AC"/>
<path fill-rule="evenodd" clip-rule="evenodd" d="M44.3917 23.3506C44.4239 23.3426 44.4562 23.3348 44.4886 23.3273C44.7649 23.2594 45.0454 23.2094 45.3282 23.1775C45.565 23.1799 45.8015 23.1966 46.0363 23.2274C46.2858 23.2661 46.5317 23.3253 46.7715 23.4045C50.2664 24.5803 50.5433 30.0552 50.0712 34.8219C50.0349 35.1579 49.9986 35.4938 49.9578 35.8207C49.7268 37.6522 49.4011 39.4706 48.9819 41.2684C48.9398 41.4564 48.8995 41.6219 48.8651 41.7627C48.8439 41.8497 48.8251 41.9272 48.8095 41.9947C48.7595 42.2036 48.7277 42.3171 48.7277 42.3171L48.6415 41.7451V41.6679C48.4554 40.2379 47.7338 38.3902 46.8533 36.5107C45.8249 34.4315 44.7069 32.3985 43.5025 30.4174C41.4224 31.0933 38.2869 32.0135 34.2825 32.9015C33.5018 33.074 32.6939 33.2465 31.8452 33.4145C30.6923 33.6445 29.482 33.8684 28.2142 34.0863C23.1807 34.9353 20.8886 33.4599 19.8855 31.5622C19.8052 31.4148 19.7325 31.2632 19.6677 31.1083C18.7282 28.8384 19.4044 26.1736 19.4044 26.1736C19.6677 26.732 20.2486 26.7864 21.0838 26.4914C21.2384 26.4376 21.3899 26.3755 21.5377 26.3052C22.6597 25.8109 24.1376 24.8559 25.8467 23.7515C28.7213 21.894 32.25 19.6138 35.8393 18.3925C36.5502 18.1423 37.3008 18.0238 38.0542 18.0429C38.411 18.0555 38.7654 18.1057 39.1117 18.1927C40.237 18.4998 41.2562 19.1107 42.0574 19.9587C42.1799 20.0858 42.3025 20.2129 42.4205 20.3445C43.148 21.1863 43.7685 22.1149 44.2678 23.1092C44.3098 23.1894 44.3511 23.2699 44.3917 23.3506Z" fill="#A16929"/>
<path d="M23.462 26.5853C23.3123 27.0393 22.8266 35.9644 23.2896 40.0139L27.5696 28.7871L23.462 26.5853Z" fill="#A16929"/>
<path d="M42.4298 20.3264C41.3269 21.5748 40.2058 22.8005 38.9804 23.9582C35.5899 27.1814 31.6639 29.9779 27.0888 31.2218C24.8194 31.8301 22.1688 32.2114 19.8858 31.5622C19.8055 31.4147 19.7328 31.2632 19.668 31.1083C19.8631 31.1673 20.0583 31.2127 20.2716 31.2581C24.3565 32.0934 28.8953 30.6089 32.4128 28.5342C36.1006 26.257 39.3667 23.3587 42.0667 19.9677C42.1893 20.0676 42.3118 20.1947 42.4298 20.3264Z" fill="#C98643"/>
<path d="M39.121 18.1745C37.0513 21.5839 34.3326 24.5892 31.1827 26.5368C28.6229 28.1166 25.7362 28.7068 22.8541 27.7398C22.1432 27.5191 21.5224 27.0749 21.084 26.4732C21.2386 26.4195 21.3901 26.3573 21.5379 26.2871C21.806 26.5831 22.1319 26.821 22.4955 26.9862C24.0188 27.6676 25.7243 27.8271 27.3475 27.4402C30.107 26.7728 32.508 24.9251 34.4325 22.9004C35.8213 21.4195 37.0393 19.787 38.0635 18.0338C38.4199 18.0434 38.7744 18.0906 39.121 18.1745Z" fill="#C98643"/>
<path d="M44.6904 23.9264C42.6958 26.2608 40.4728 28.3899 38.0547 30.282C36.8559 31.2351 35.596 32.1086 34.283 32.8969C33.5023 33.0694 32.6945 33.2419 31.8457 33.4099C34.3543 32.2705 36.6696 30.7465 38.7083 28.8929C40.7236 27.1165 42.5864 25.1742 44.2773 23.0865C44.4226 23.368 44.5588 23.6495 44.6904 23.9264Z" fill="#C98643"/>
<path d="M28.2916 36.8601C26.9299 37.6954 26.1175 39.7428 26.9299 41.0639C26.9663 41.132 27.107 41.1048 27.0979 41.0276C27.0335 40.4164 27.1078 39.7985 27.3153 39.22C27.5227 38.6415 27.858 38.1173 28.2961 37.6864C28.8814 37.1527 29.642 36.8523 30.4339 36.842C31.3416 36.7829 31.741 37.5956 32.4536 37.8725C32.5988 37.9315 32.7849 37.8362 32.735 37.6864C32.1722 35.9885 29.685 36.0157 28.2916 36.8601Z" fill="#390A0A"/>
<path d="M33.0982 40.6735C33.0982 42.8753 31.7366 44.6639 30.0754 44.6639C28.4142 44.6639 27.0571 42.8753 27.0571 40.6735C27.0571 38.4717 28.4188 36.6831 30.0754 36.6831C31.7321 36.6831 33.0982 38.4717 33.0982 40.6735Z" fill="white"/>
<path d="M32.4583 40.7915C32.4583 42.4304 31.428 43.7605 30.1571 43.7605C28.8863 43.7605 27.856 42.4304 27.856 40.7915C27.856 39.1527 28.8863 37.818 30.1571 37.818C31.428 37.818 32.4583 39.1618 32.4583 40.7915Z" fill="#3D79CA"/>
<path d="M32.0904 40.8369C32.0904 42.1989 31.2462 43.3429 30.2068 43.3429C29.1674 43.3429 28.3232 42.2216 28.3232 40.8369C28.3232 39.4523 29.1674 38.331 30.2068 38.331C31.2462 38.331 32.0904 39.4569 32.0904 40.8369Z" fill="#390A0A"/>
<path d="M32.458 38.6806C32.458 38.9529 31.9225 39.1708 31.2643 39.1708C30.6062 39.1708 30.0752 38.9529 30.0752 38.6806C30.0752 38.4082 30.6108 38.1857 31.2643 38.1857C31.9179 38.1857 32.458 38.4036 32.458 38.6806Z" fill="white"/>
<path d="M43.6329 36.8601C44.9945 37.6954 45.8069 39.7428 44.9945 41.0639C44.9582 41.132 44.8175 41.1048 44.8266 41.0276C44.8909 40.4164 44.8166 39.7985 44.6092 39.22C44.4017 38.6415 44.0664 38.1173 43.6283 37.6864C43.0447 37.153 42.2856 36.8526 41.4951 36.842C40.5874 36.7829 40.1834 37.5956 39.4708 37.8725C39.3256 37.9315 39.1395 37.8362 39.1894 37.6864C39.7522 35.9885 42.2395 36.0157 43.6329 36.8601Z" fill="#390A0A"/>
<path d="M44.6493 40.6735C44.6493 42.8753 43.2877 44.6639 41.6311 44.6639C39.9744 44.6639 38.6128 42.8753 38.6128 40.6735C38.6128 38.4717 39.9744 36.6831 41.6311 36.6831C43.2877 36.6831 44.6493 38.4717 44.6493 40.6735Z" fill="white"/>
<path d="M44.009 40.7915C44.009 42.4304 42.9787 43.7605 41.7079 43.7605C40.437 43.7605 39.4067 42.444 39.4067 40.7915C39.4067 39.1391 40.437 37.818 41.7034 37.818C42.9697 37.818 44.009 39.1618 44.009 40.7915Z" fill="#3D79CA"/>
<path d="M43.6462 40.8369C43.6462 42.1989 42.802 43.3429 41.7581 43.3429C40.7142 43.3429 39.8745 42.2216 39.8745 40.8369C39.8745 39.4523 40.7187 38.331 41.7581 38.331C42.7975 38.331 43.6462 39.4569 43.6462 40.8369Z" fill="#390A0A"/>
<path d="M44.0096 38.6806C44.0096 38.9529 43.4786 39.1708 42.8205 39.1708C42.1624 39.1708 41.6313 38.9529 41.6313 38.6806C41.6313 38.4082 42.1624 38.1857 42.8205 38.1857C43.4786 38.1857 44.0096 38.4036 44.0096 38.6806Z" fill="white"/>
<path d="M35.8755 38.7486C35.8755 38.7486 34.9678 37.8407 34.8044 41.073C34.641 44.3053 34.8044 47.6828 34.8044 47.6828C34.8044 47.6828 32.6621 46.4299 33.3747 48.2185C33.7605 49.181 34.6682 49.6758 35.6441 49.93C35.9985 50.0325 36.3749 50.0314 36.7288 49.9268C37.0827 49.8223 37.3992 49.6186 37.6411 49.3399C37.8953 49.0902 39.2206 47.7464 38.803 47.3287C38.6033 47.1245 37.4414 47.6057 37.1464 47.6828C37.1373 47.6828 37.4822 38.0359 35.8755 38.7486Z" fill="#E1A387"/>
<path d="M41.2226 51.8367C41.2226 51.8367 37.0152 59.0503 31.2056 52.1091C31.2056 52.1091 34.5915 50.9651 35.8306 51.982L36.2844 52.495C36.2844 52.495 37.5916 50.8834 41.2226 51.8367Z" fill="#CE8D75"/>
<path d="M41.2226 51.8367C41.2226 51.8367 37.0152 59.0504 31.2056 52.1091C31.2373 52.1091 36.9153 54.7149 41.2226 51.8367Z" fill="#E1A387"/>
<path d="M33.6613 35.2149C33.6613 35.9775 31.716 35.5476 29.3384 35.5476C26.9609 35.5476 25.0156 35.9775 25.0156 35.2149C25.0156 34.4523 26.9566 32.7858 29.3384 32.7858C31.7203 32.7858 33.6613 34.4523 33.6613 35.2149Z" fill="#343434"/>
<path d="M46.149 35.2149C46.149 35.9775 44.2081 35.5476 41.8262 35.5476C39.4444 35.5476 37.5034 35.9775 37.5034 35.2149C37.5034 34.4523 39.4444 32.7858 41.8262 32.7858C44.2081 32.7858 46.149 34.4523 46.149 35.2149Z" fill="#343434"/>
</g>
</svg>
