<svg width="25" height="25" viewBox="0 0 25 25" fill="none" xmlns="http://www.w3.org/2000/svg">
<path d="M24.4708 23.0088L18.5118 17.0498C20.2088 14.9775 21.0442 12.3322 20.8451 9.66111C20.646 6.99005 19.4276 4.49778 17.442 2.70006C15.4565 0.90234 12.8558 -0.0632144 10.1782 0.00321364C7.50051 0.0696417 4.95089 1.16297 3.05693 3.05693C1.16297 4.95089 0.0696417 7.50051 0.00321364 10.1782C-0.0632144 12.8558 0.90234 15.4565 2.70006 17.442C4.49778 19.4276 6.99005 20.646 9.6611 20.8451C12.3322 21.0442 14.9775 20.2088 17.0498 18.5118L23.0088 24.4658C23.1045 24.5618 23.2181 24.638 23.3432 24.6901C23.4683 24.7421 23.6025 24.7691 23.738 24.7693C23.8735 24.7695 24.0078 24.7431 24.1331 24.6914C24.2584 24.6398 24.3723 24.564 24.4683 24.4683C24.5643 24.3726 24.6405 24.259 24.6926 24.1339C24.7447 24.0087 24.7716 23.8746 24.7718 23.7391C24.772 23.6035 24.7456 23.4693 24.6939 23.344C24.6423 23.2187 24.5665 23.1048 24.4708 23.0088ZM10.4338 18.7948C8.77859 18.7942 7.16075 18.3028 5.78483 17.3828C4.4089 16.4627 3.3367 15.1553 2.70379 13.6259C2.07087 12.0965 1.90569 10.4138 2.22911 8.7905C2.55253 7.16722 3.35003 5.67629 4.52078 4.50624C5.69152 3.3362 7.18293 2.53958 8.8064 2.21713C10.4299 1.89468 12.1125 2.06087 13.6415 2.6947C15.1706 3.32852 16.4773 4.40151 17.3965 5.77799C18.3158 7.15446 18.8062 8.7726 18.8058 10.4278C18.8031 12.6469 17.9201 14.7743 16.3505 16.343C14.7808 17.9117 12.6529 18.7935 10.4338 18.7948Z" fill="#22215B"/>
</svg>
