<svg width="318" height="20" viewBox="0 0 318 20" fill="none" xmlns="http://www.w3.org/2000/svg">
<path fill-rule="evenodd" clip-rule="evenodd" d="M9.07698 19.151C7.28204 19.151 5.52741 18.6188 4.03494 17.6217C2.54246 16.6245 1.37917 15.2072 0.692137 13.549C0.00510788 11.8907 -0.174802 10.066 0.175154 8.30549C0.52511 6.545 1.38922 4.92781 2.65822 3.65839C3.92722 2.38897 5.54413 1.52432 7.3045 1.17379C9.06488 0.823248 10.8897 1.00256 12.5481 1.68904C14.2066 2.37552 15.6243 3.53834 16.6219 5.03049C17.6196 6.52264 18.1524 8.27709 18.153 10.072C18.1509 12.4788 17.1941 14.7864 15.4925 16.4885C13.791 18.1905 11.4837 19.1481 9.07698 19.151ZM16.331 11.251C14.8457 10.8199 13.2852 10.7128 11.755 10.937C12.3795 12.638 12.8569 14.3894 13.182 16.172C14.0149 15.6105 14.724 14.8844 15.2655 14.0384C15.8071 13.1924 16.1697 12.2445 16.331 11.253V11.251ZM11.947 16.851C11.6014 14.9487 11.0764 13.0833 10.379 11.28L10.331 11.296C7.89949 12.0427 5.84061 13.6818 4.56798 15.884C5.60016 16.6886 6.82869 17.2025 8.1263 17.3725C9.4239 17.5425 10.7434 17.3625 11.948 16.851H11.947ZM3.61898 14.999C5.0034 12.7539 7.10841 11.0448 9.58998 10.151C9.68998 10.12 9.78198 10.091 9.87898 10.064C9.69498 9.64603 9.49398 9.22903 9.27898 8.81703C6.82548 9.51931 4.285 9.87112 1.73298 9.86203C1.73298 9.93703 1.73298 10.012 1.73298 10.086C1.73049 11.9009 2.40268 13.652 3.61898 14.999ZM1.88498 8.58203C4.17746 8.56837 6.45921 8.2677 8.67698 7.68703C7.84653 6.22277 6.93719 4.80469 5.95298 3.43903C4.92402 3.92422 4.02132 4.641 3.31558 5.53325C2.60983 6.42549 2.12019 7.46899 1.88498 8.58203ZM7.35498 2.94503C8.36119 4.31723 9.2768 5.75361 10.096 7.24503C11.607 6.7479 12.9434 5.82702 13.946 4.59203C13.0613 3.8068 12 3.24697 10.8525 2.96021C9.70489 2.67344 8.50501 2.66824 7.35498 2.94503ZM14.763 5.44503C13.6722 6.75229 12.2589 7.75195 10.663 8.34503C10.834 8.69603 10.998 9.05203 11.151 9.41003C11.2043 9.53736 11.257 9.66369 11.309 9.78903C13.0169 9.61135 14.7418 9.69125 16.426 10.026C16.4129 8.35255 15.8263 6.73417 14.764 5.44103L14.763 5.44503Z" fill="#0C0C41"/>
<path d="M137.934 4.82601C137.224 5.13674 136.47 5.339 135.7 5.42601C136.514 4.95148 137.121 4.18901 137.401 3.28901C136.641 3.74207 135.807 4.05915 134.938 4.22601C134.581 3.84679 134.152 3.54298 133.676 3.33256C133.2 3.12214 132.687 3.00939 132.167 3.00099C131.646 2.9926 131.129 3.08874 130.647 3.2837C130.164 3.47866 129.726 3.76849 129.357 4.13601C128.99 4.49178 128.7 4.91889 128.505 5.391C128.31 5.86311 128.214 6.3702 128.222 6.88101C128.224 7.18001 128.258 7.47795 128.322 7.77001C126.765 7.69632 125.243 7.28697 123.859 6.57001C122.493 5.87334 121.288 4.89883 120.321 3.70901C119.985 4.28533 119.803 4.93829 119.793 5.60516C119.782 6.27203 119.944 6.93041 120.261 7.51701C120.563 8.07348 120.996 8.54763 121.523 8.89801C120.907 8.87638 120.306 8.70731 119.769 8.40501V8.45301C119.757 9.35546 120.07 10.2321 120.652 10.922C121.215 11.6158 122.004 12.09 122.881 12.262C122.548 12.3496 122.205 12.394 121.86 12.394C121.614 12.3922 121.369 12.3722 121.127 12.334C121.376 13.1044 121.86 13.7778 122.51 14.2602C123.161 14.7426 123.945 15.01 124.755 15.025C123.388 16.1156 121.686 16.7012 119.937 16.683C119.624 16.6851 119.312 16.6694 119.001 16.636C120.773 17.7886 122.846 18.3944 124.96 18.378C126.282 18.3875 127.595 18.1658 128.84 17.723C129.971 17.3313 131.022 16.737 131.94 15.969C132.796 15.237 133.542 14.3856 134.155 13.441C134.761 12.5193 135.229 11.5135 135.543 10.456C135.844 9.44492 135.998 8.3959 136.001 7.34101C136.001 7.11701 135.997 6.95034 135.989 6.84101C136.749 6.28695 137.407 5.60517 137.934 4.82601Z" fill="#0C0C41"/>
<path d="M183.067 7.55999H179.221V19.11H183.067V7.55999Z" fill="#0C0C41"/>
<path d="M195.692 8.61499C195.286 8.17582 194.788 7.83011 194.235 7.6017C193.682 7.3733 193.085 7.26762 192.487 7.29198C192.036 7.28674 191.586 7.34773 191.152 7.47298C190.785 7.57663 190.441 7.74865 190.138 7.97998C189.692 8.31261 189.315 8.7278 189.025 9.20299V7.56099H185.192L185.204 8.12099C185.212 8.49432 185.216 9.64432 185.216 11.571C185.216 13.4977 185.209 16.0113 185.193 19.112H189.028V12.661C189.017 12.3413 189.06 12.0221 189.156 11.717C189.314 11.3261 189.569 10.9819 189.896 10.717C190.246 10.4429 190.682 10.3013 191.126 10.317C191.411 10.2959 191.696 10.3486 191.954 10.47C192.213 10.5914 192.435 10.7774 192.6 11.01C192.945 11.5876 193.11 12.2552 193.072 12.927V19.104H196.907V12.484C197.005 11.0872 196.571 9.70518 195.692 8.61499Z" fill="#0C0C41"/>
<path d="M181.168 1.99999C180.592 1.97474 180.028 2.17774 179.6 2.56499C179.404 2.74651 179.25 2.96768 179.146 3.21376C179.043 3.45983 178.993 3.72515 179 3.99199C178.994 4.25647 179.042 4.51943 179.142 4.76422C179.243 5.009 179.393 5.23027 179.583 5.41399C179.788 5.60751 180.03 5.7578 180.294 5.8559C180.558 5.954 180.84 5.9979 181.121 5.98499H181.144C181.725 6.0109 182.293 5.80559 182.723 5.41399C182.918 5.23334 183.071 5.01277 183.173 4.76735C183.275 4.52193 183.322 4.25745 183.312 3.99199C183.316 3.72599 183.265 3.46201 183.163 3.21638C183.061 2.97075 182.91 2.74871 182.718 2.56399C182.51 2.3717 182.266 2.22279 182 2.12595C181.734 2.02911 181.451 1.98629 181.168 1.99999Z" fill="#0C0C41"/>
<path d="M248.689 0.999986H246.274C245.668 0.965754 245.063 1.0618 244.497 1.28165C243.932 1.5015 243.421 1.84003 242.997 2.27441C242.574 2.70878 242.249 3.2289 242.044 3.79965C241.838 4.37041 241.758 4.97853 241.808 5.58299V7.69999H239.38C239.279 7.69999 239.183 7.74002 239.111 7.81129C239.04 7.88255 239 7.9792 239 8.07999V11.142C239 11.2428 239.04 11.3394 239.111 11.4107C239.183 11.482 239.279 11.522 239.38 11.522H241.808V19.248C241.808 19.3488 241.848 19.4454 241.919 19.5167C241.991 19.588 242.087 19.628 242.188 19.628H245.356C245.457 19.628 245.553 19.588 245.625 19.5167C245.696 19.4454 245.736 19.3488 245.736 19.248V11.518H248.575C248.625 11.518 248.674 11.5082 248.72 11.4891C248.767 11.47 248.808 11.442 248.844 11.4067C248.879 11.3714 248.907 11.3295 248.926 11.2834C248.945 11.2373 248.955 11.1879 248.955 11.138V8.07599C248.955 7.9752 248.915 7.87855 248.844 7.80729C248.772 7.73602 248.676 7.69599 248.575 7.69599H245.735V5.89999C245.735 5.03899 245.94 4.59999 247.062 4.59999H248.689C248.79 4.59999 248.886 4.55995 248.958 4.48869C249.029 4.41742 249.069 4.32077 249.069 4.21999V1.38399C249.07 1.33375 249.06 1.2839 249.041 1.23734C249.022 1.19077 248.994 1.14841 248.959 1.1127C248.924 1.07698 248.882 1.04864 248.835 1.02929C248.789 1.00994 248.739 0.999983 248.689 0.999986Z" fill="#0C0C41"/>
<path d="M304.183 13.985C304.259 13.0214 303.989 12.0622 303.423 11.279C302.857 10.4958 302.03 9.93965 301.091 9.71C301.796 9.43754 302.398 8.95082 302.813 8.31832C303.227 7.68582 303.432 6.93937 303.4 6.184C303.4 2.82 300.889 2 297.988 2H290V18.888H298.212C301.291 18.888 304.183 17.416 304.183 13.985ZM293.724 4.883H297.218C298.561 4.883 299.771 5.259 299.771 6.813C299.771 8.247 298.83 8.824 297.5 8.824H293.724V4.883ZM293.724 16.02V11.369H297.782C299.421 11.369 300.458 12.05 300.458 13.78C300.458 15.486 299.22 16.019 297.705 16.019L293.724 16.02Z" fill="#0C0C41"/>
<path d="M311.562 19.208C312.851 19.312 314.135 18.9559 315.186 18.2029C316.237 17.4499 316.987 16.3487 317.303 15.095H314.331C314.096 15.5956 313.717 16.0149 313.243 16.2998C312.769 16.5846 312.221 16.7222 311.668 16.695C311.254 16.7348 310.836 16.6808 310.446 16.5369C310.055 16.3931 309.702 16.1631 309.413 15.8641C309.124 15.5651 308.906 15.2048 308.775 14.8099C308.644 14.4149 308.604 13.9956 308.657 13.583H317.505C317.52 13.383 317.534 13.17 317.534 12.955C317.534 9.338 315.412 6.322 311.564 6.322C310.718 6.30395 309.878 6.4605 309.095 6.78188C308.313 7.10326 307.605 7.58256 307.016 8.18983C306.427 8.79711 305.97 9.51931 305.672 10.3113C305.375 11.1034 305.244 11.9482 305.288 12.793C305.286 16.596 307.69 19.208 311.562 19.208ZM311.462 8.854C311.815 8.82838 312.169 8.87779 312.502 8.99898C312.835 9.12017 313.138 9.31039 313.391 9.55712C313.645 9.80386 313.844 10.1015 313.974 10.4305C314.105 10.7595 314.164 11.1124 314.148 11.466H308.662C308.664 11.1074 308.739 10.753 308.883 10.4245C309.027 10.096 309.236 9.80032 309.498 9.55571C309.761 9.31109 310.07 9.12266 310.408 9.00199C310.745 8.88133 311.104 8.83096 311.462 8.854Z" fill="#0C0C41"/>
<path d="M307.973 2.887H314.843V4.55H307.973V2.887Z" fill="#0C0C41"/>
<path d="M77.852 6.262C77.8375 5.51997 77.6968 4.78582 77.436 4.091C77.2053 3.49602 76.8529 2.95576 76.4014 2.50479C75.9499 2.05381 75.4092 1.70204 74.814 1.472C74.1191 1.21145 73.385 1.07079 72.643 1.056C71.685 1.011 71.381 1 68.952 1C66.523 1 66.217 1.011 65.262 1.052C64.5199 1.0665 63.7858 1.20717 63.091 1.468C62.4929 1.69183 61.9512 2.0441 61.504 2.5C61.0494 2.94808 60.6976 3.48957 60.473 4.087C60.2107 4.78161 60.0684 5.51572 60.052 6.258C60.011 7.216 60.001 7.52 60.001 9.95C60.001 12.38 60.011 12.684 60.052 13.639C60.0668 14.3811 60.2078 15.1152 60.469 15.81C60.6993 16.4047 61.0512 16.9448 61.5022 17.3958C61.9532 17.8468 62.4933 18.1987 63.088 18.429C63.7829 18.6895 64.517 18.8302 65.259 18.845C66.213 18.887 66.518 18.897 68.947 18.897C71.376 18.897 71.681 18.887 72.635 18.845C73.377 18.8306 74.1112 18.6899 74.806 18.429C75.4009 18.199 75.9412 17.8472 76.3922 17.3962C76.8432 16.9452 77.195 16.4049 77.425 15.81C77.6854 15.1151 77.8261 14.381 77.841 13.639C77.883 12.685 77.893 12.38 77.893 9.951C77.893 7.522 77.893 7.217 77.848 6.263L77.852 6.262ZM76.24 13.569C76.2341 14.1363 76.1299 14.6983 75.932 15.23C75.7828 15.6162 75.5545 15.967 75.2617 16.2598C74.969 16.5525 74.6182 16.7808 74.232 16.93C73.7002 17.1276 73.1383 17.2318 72.571 17.238C71.627 17.28 71.344 17.29 68.956 17.29C66.568 17.29 66.281 17.28 65.341 17.238C64.7737 17.2323 64.2116 17.1281 63.68 16.93C63.2914 16.7871 62.94 16.5584 62.652 16.261C62.3556 15.9723 62.1274 15.6211 61.984 15.233C61.7864 14.7012 61.6822 14.1393 61.676 13.572C61.634 12.628 61.624 12.345 61.624 9.957C61.624 7.569 61.634 7.282 61.676 6.342C61.6817 5.77468 61.7859 5.21266 61.984 4.681C62.1256 4.29232 62.3541 3.94108 62.652 3.654C62.9412 3.35731 63.2931 3.12907 63.682 2.986C64.2138 2.78845 64.7757 2.68426 65.343 2.678C66.287 2.636 66.57 2.626 68.958 2.626C71.346 2.626 71.633 2.637 72.573 2.678C73.1403 2.68383 73.7023 2.78805 74.234 2.986C74.6225 3.12854 74.9739 3.35687 75.262 3.654C75.5583 3.94273 75.7865 4.29392 75.93 4.682C76.1275 5.2138 76.2317 5.77573 76.238 6.343C76.28 7.287 76.29 7.57 76.29 9.958C76.29 12.346 76.279 12.626 76.238 13.57L76.24 13.569Z" fill="#0C0C41"/>
<path d="M68.9511 5.353C68.0413 5.353 67.1519 5.62278 66.3955 6.12823C65.639 6.63369 65.0494 7.35211 64.7012 8.19265C64.3531 9.03319 64.262 9.95811 64.4395 10.8504C64.617 11.7427 65.0551 12.5624 65.6984 13.2057C66.3417 13.849 67.1613 14.2871 68.0537 14.4646C68.946 14.6421 69.8709 14.551 70.7114 14.2028C71.552 13.8547 72.2704 13.2651 72.7758 12.5086C73.2813 11.7522 73.5511 10.8628 73.5511 9.953C73.5511 8.73301 73.0664 7.56297 72.2038 6.7003C71.3411 5.83763 70.1711 5.353 68.9511 5.353ZM68.9511 12.933C68.3613 12.933 67.7848 12.7581 67.2944 12.4304C66.804 12.1028 66.4218 11.6371 66.1961 11.0922C65.9704 10.5473 65.9113 9.94768 66.0264 9.36923C66.1414 8.79078 66.4254 8.25945 66.8425 7.84241C67.2595 7.42537 67.7909 7.14136 68.3693 7.0263C68.9478 6.91124 69.5473 6.97029 70.0922 7.19599C70.6371 7.42169 71.1029 7.8039 71.4305 8.29429C71.7582 8.78468 71.9331 9.36122 71.9331 9.951C71.9328 10.7418 71.6186 11.5001 71.0594 12.0593C70.5002 12.6185 69.7419 12.9327 68.9511 12.933Z" fill="#0C0C41"/>
<path d="M74.8071 5.17101C74.8071 5.38322 74.7442 5.59067 74.6263 5.76713C74.5084 5.94358 74.3408 6.08111 74.1448 6.16232C73.9487 6.24354 73.7329 6.26478 73.5248 6.22338C73.3167 6.18198 73.1255 6.07979 72.9754 5.92973C72.8254 5.77966 72.7232 5.58847 72.6817 5.38033C72.6403 5.17219 72.6616 4.95645 72.7428 4.76038C72.824 4.56432 72.9616 4.39674 73.138 4.27884C73.3145 4.16094 73.5219 4.098 73.7341 4.098C74.0187 4.098 74.2916 4.21105 74.4929 4.41228C74.6941 4.6135 74.8071 4.88643 74.8071 5.17101Z" fill="#0C0C41"/>
</svg>
